<mxfile host="app.diagrams.net" agent="Mozilla/5.0 (Windows NT 10.0; Win64; x64) AppleWebKit/537.36 (KHTML, like Gecko) Chrome/135.0.0.0 Safari/537.36" version="28.1.0">
  <diagram name="第 1 页" id="p8LXofo3peblIbwCL1J_">
    <mxGraphModel dx="1554" dy="822" grid="1" gridSize="10" guides="1" tooltips="1" connect="1" arrows="1" fold="1" page="1" pageScale="1" pageWidth="1169" pageHeight="827" math="0" shadow="0">
      <root>
        <mxCell id="0" />
        <mxCell id="1" parent="0" />
        <mxCell id="OhV8T-aaWGPs-SQFwPPZ-6" value="" style="rounded=1;whiteSpace=wrap;html=1;fillColor=none;strokeColor=#0DB9FF;dashed=1;" vertex="1" parent="1">
          <mxGeometry x="245" y="230" width="385" height="290" as="geometry" />
        </mxCell>
        <mxCell id="OhV8T-aaWGPs-SQFwPPZ-1" value="" style="shape=image;editableCssRules=.*;verticalLabelPosition=bottom;labelBackgroundColor=default;verticalAlign=top;aspect=fixed;imageAspect=0;image=data:image/svg+xml,PHN2ZyB4bWxucz0iaHR0cDovL3d3dy53My5vcmcvMjAwMC9zdmciIHZpZXdCb3g9Ii0wLjUgLTAuNSAyOCAyOCIgaGVpZ2h0PSIyOCIgd2lkdGg9IjI4Ij4mI3hhOwkgIDxzdHlsZSB0eXBlPSJ0ZXh0L2NzcyI+LnN0MCB7IHN0b3AtY29sb3I6IHJnYigzNSwgMTQ5LCAyNTUpOyB9IC5zdDEgeyBzdG9wLWNvbG9yOiByZ2IoMCwgODcsIDIxMCk7IH0gPC9zdHlsZT4mI3hhOwk8ZGVmcz4mI3hhOwkJPGxpbmVhckdyYWRpZW50IGdyYWRpZW50VW5pdHM9InVzZXJTcGFjZU9uVXNlIiB5Mj0iMjUuMzA5IiB4Mj0iMjMuNDU0IiB5MT0iMy40NzQiIHgxPSIyLjAzOSIgaWQ9IkEiPiYjeGE7CQkJPHN0b3AgY2xhc3M9InN0MCIvPiYjeGE7CQkJPHN0b3AgY2xhc3M9InN0MSIgb2Zmc2V0PSIxIi8+JiN4YTsJCTwvbGluZWFyR3JhZGllbnQ+JiN4YTsJPC9kZWZzPiYjeGE7CTxwYXRoIGZpbGw9InVybCgjQSkiIGQ9Ik0tLjUgMTMuNDcyYzAtMS45My4zNzEtMy43MyAxLjExMy01LjQuNzQyLTEuNzA3IDEuNzQ0LTMuMTkyIDMuMDA2LTQuNDUzUzYuMzY1IDEuMzU2IDguMDczLjYxMyAxMS41OTgtLjUgMTMuNTI4LS41czMuNzMuMzcxIDUuNCAxLjExM2MxLjcwNy43NDIgMy4xOTIgMS43NDQgNC40NTMgMy4wMDZzMi4yNjQgMi43NDYgMy4wMDYgNC40NTNjLjc0MiAxLjY3IDEuMTEzIDMuNDcgMS4xMTMgNS40cy0uMzcxIDMuNzQ4LTEuMTEzIDUuNDU1LTEuNzQ0IDMuMTkyLTMuMDA2IDQuNDUzYTE0LjI4IDE0LjI4IDAgMCAxLTQuNDUzIDMuMDA2Yy0xLjY3Ljc0Mi0zLjQ3IDEuMTEzLTUuNCAxLjExM3MtMy43NDgtLjM3MS01LjQ1NS0xLjExM2ExNC4yOCAxNC4yOCAwIDAgMS00LjQ1My0zLjAwNiAxNC4yOCAxNC4yOCAwIDAgMS0zLjAwNi00LjQ1M0MtLjEyOSAxNy4yMi0uNSAxNS40MDItLjUgMTMuNDcyem0xNi44MTEgNC4yMzFhNi42NSA2LjY1IDAgMCAxIDMuMjg0LjgzNWMxLjAwMi41MiAxLjgxOCAxLjI0MyAyLjQ0OSAyLjE3MWExMC4xNCAxMC4xNCAwIDAgMCAxLjk0OC0zLjI4NGMuNDgyLTEuMjI1LjcyNC0yLjU0Mi43MjQtMy45NTIgMC0xLjU1OS0uMjk3LTMuMDA2LS44OTEtNC4zNDItLjU5NC0xLjM3My0xLjM5Mi0yLjU2MS0yLjM5NC0zLjU2M3MtMi4xOS0xLjgtMy41NjMtMi4zOTRjLTEuMzM2LS41OTQtMi43ODMtLjg5MS00LjM0Mi0uODkxcy0zLjAyNC4yOTctNC4zOTguODkxYy0xLjMzNi41OTQtMi41MjQgMS4zOTItMy41NjMgMi4zOTRBMTEuMzUgMTEuMzUgMCAwIDAgMy4xNzQgOS4xM2MtLjU5NCAxLjMzNi0uODkxIDIuNzgzLS44OTEgNC4zNDIgMCAxLjQxLjIyMyAyLjcyOC42NjggMy45NTIuNDgyIDEuMjI1IDEuMTUgMi4zMTkgMi4wMDQgMy4yODQuNjMxLS45MjggMS40NDctMS42NTEgMi40NDktMi4xNzFhNi42NSA2LjY1IDAgMCAxIDMuMjg0LS44MzV6bTIuNzgzLTcuMDE0YTUuNjggNS42OCAwIDAgMS0uNDQ1IDIuMjI3IDUuODcgNS44NyAwIDAgMS0xLjIyNSAxLjc4MWMtLjQ4Mi40ODItMS4wNTguODcyLTEuNzI2IDEuMTY5cy0xLjM5Mi40NDUtMi4xNzEuNDQ1YTUuNjggNS42OCAwIDAgMS0yLjIyNy0uNDQ1IDYuNDQgNi40NCAwIDAgMS0xLjc4MS0xLjE2OSA2LjQ0IDYuNDQgMCAwIDEtMS4xNjktMS43ODEgNS42OCA1LjY4IDAgMCAxLS40NDUtMi4yMjdjMC0uNzc5LjE0OC0xLjUwMy40NDUtMi4xNzFBNi40NCA2LjQ0IDAgMCAxIDkuNTIgNi43MzdhNS44NyA1Ljg3IDAgMCAxIDEuNzgxLTEuMjI1IDUuNjggNS42OCAwIDAgMSAyLjIyNy0uNDQ1Yy43NzkgMCAxLjUwMy4xNDggMi4xNzEuNDQ1czEuMjQzLjcwNSAxLjcyNiAxLjIyNWE1Ljg3IDUuODcgMCAwIDEgMS4yMjUgMS43ODFjLjI5Ny42NjguNDQ1IDEuMzkyLjQ0NSAyLjE3MXptLTIuNzgzIDBjMC0uNzc5LS4yNzgtMS40MjktLjgzNS0xLjk0OC0uNTU3LS41NTctMS4yMDYtLjgzNS0xLjk0OC0uODM1YTIuNzMgMi43MyAwIDAgMC0yLjAwNC44MzVjLS41NTcuNTItLjgzNSAxLjE2OS0uODM1IDEuOTQ4YTIuNzMgMi43MyAwIDAgMCAuODM1IDIuMDA0Yy41NTcuNTIgMS4yMjUuNzc5IDIuMDA0Ljc3OS43NDIgMCAxLjM5Mi0uMjYgMS45NDgtLjc3OWEyLjczIDIuNzMgMCAwIDAgLjgzNS0yLjAwNHpNNy4wNzEgMjIuNjU3Yy44OTEuNjMxIDEuODc0IDEuMTMyIDIuOTUgMS41MDMgMS4xMTMuMzcxIDIuMjgyLjU1NyAzLjUwNy41NTcgMS4xODggMCAyLjMxOS0uMTg2IDMuMzk2LS41NTcgMS4xMTMtLjM3MSAyLjExNS0uODcyIDMuMDA2LTEuNTAzLS4zNzEtLjY2OC0uODkxLTEuMTg4LTEuNTU5LTEuNTU5LS42MzEtLjQwOC0xLjMxNy0uNjEyLTIuMDYtLjYxMmgtNS42MjJjLS43NDIgMC0xLjQ0Ny4yMDQtMi4xMTUuNjEyLS42MzEuMzcxLTEuMTMyLjg5MS0xLjUwMyAxLjU1OXoiLz4mI3hhOzwvc3ZnPg==;" vertex="1" parent="1">
          <mxGeometry x="160" y="405" width="40" height="40" as="geometry" />
        </mxCell>
        <mxCell id="OhV8T-aaWGPs-SQFwPPZ-4" value="" style="shape=image;verticalLabelPosition=bottom;labelBackgroundColor=default;verticalAlign=top;aspect=fixed;imageAspect=0;image=data:image/png,iVBORw0KGgoAAAANSUhEUgAAAgAAAAIACAYAAAD0eNT6AAAACXBIWXMAAA7DAAAOwwHHb6hkAAAAGXRFWHRTb2Z0d2FyZQB3d3cuaW5rc2NhcGUub3Jnm+48GgAAIABJREFUeJzs3Xd4VFXeB/DvudPTIZRQQpUuCAKZhKKIIIpixw669i72gsCyxXVdu+7a114WdRd1pUgRlJKELh2phpJAQhJIm5k797x/uPhaKAlz7ty5M9/P87zP+zwav/e3PpLzu+eeIkCWysvL8xmGkQugl5Syi6ZpnaWU2QBS/vd/adZWSES/UgugGkApgC1Syo1CiCUAvi4oKCixtjSi+hNWF5CI8vLyTpBSXmYYxjAAuUIIj9U1EZESKwG873Q6P1i4cOFuq4shOho2AFHSt2/fJIfDMVYIMRZAntX1EJGpdAAfAfhLQUHBOquLITocNgAmGzRoUCNd128zDONOIURTq+shoqgyhBBvhkKhh5YtW1ZqdTFEP8cGwCRDhgxx1tbW3gZgMoB0q+shIkuVCSFuzc/Pn2J1IUSHsAEwQW5u7kAp5T8A9LK6FiKKHVLKlzIzM++ePn16wOpaiNgAqCVyc3MfkFL+GYDD6mKIKCbN03X9/GXLllVaXQglNjYAivj9/uYAPgRwmtW1EFFsk1KucDgcwxYvXrzf6loocWlWFxAPcnJy2gP4Fhz8iagehBB9DMOY1qtXr2Sra6HExQYgQn6/v68QIh9AJ6trISJb8ft8vnfAmViyCL9TRyAnJydPCDELQGOrayEiW+rWunXr8l27dhVYXQglHnaex+l/g/8M8KheIopMMBwO9126dOkaqwuhxMJPAMeBgz8RKeR2OBwvgS9kFGX8BNBAHPyJyARtWrduvWHXrl2cBaCo4QxAA3DwJyITTQR/J1MUcQagnjj4E5HJmrZu3XrFrl27NlpdCCUGdpv1wMGfiKJBSnmd1TVQ4uCik2OwavA/7+IrMXTEKKRnNIKmsU8jihVVBw9gb8kerFyaj/lzZ6C8TOklfyGHw9F60aJFe1WGEh2O0+oCYpmVb/4tWmWjdZt20X4sER1DckoqmrdohZ69++GSMddj6pR38ckHb8IwDBXxLsMwRgJ4S0UY0dHw1fIIOO1PRMfi8Xhx6Zgb8ODvn4DT5VKSKaUcqiSI6BjYABwGB38iaoh+/kG47pZ7VMUNVhVEdDRsAH6Fgz8RHY8zzr4AJ57UV0VUW14SRNHABuBnOPgTUSQuuGSMihjh8Xh4uRiZjg3A/3DwJ6JInXhSXyQlp0Sco2laSwXlEB0VGwBw8CciNZwuF1plt404RwgReRdBdAwJ3wBw8CcilRo3bhJxhmEYqQpKITqqhG4AOPgTkWoOZ+THqwgheEw7mS5hGwAO/kRElMgSsgHg4E9ERIku4RoAswf/9MymaNGmoxnRREREyiRUA2D24J+R2QwXXX8PUtIzzIgnIiJSJmEagGgM/hdefzeS0zj4ExFR7EuIBoCDPxER0S/FfQPAwZ+IiOi34roB4OBPRER0eHHbAHDwJyIiOrK4bAA4+BMRER1d3DUAHPyJiIiOLa4aAA7+RERE9RM3DQAHfyIiovqLiwaAgz8REVHD2L4B4OBPRETUcLZuADj4ExERHR/bNgAc/ImIiI6fLRsADv5ERESRsV0DwMGfiIgocrZqADj4ExERqWGbBoCDPxERkTq2aAA4+BMREakV8w0AB38iIiL1YroB4OBPRERkjphtADj4ExERmScmGwAO/kREROaKuQaAgz8REZH5YqoB4OBPREQUHTHTAHDwJyIiip6YaAA4+BMREUWX5Q0AB38iIqLos7QB4OBPRERkDcsaAA7+RERE1rGkAeDgT0REZK2oNwAc/ImIiKwX1QaAgz8REVFsiFoDwMGfiIgodkSlAeDgT0REFFtMbwA4+BMREcUeUxsADv5ERESxybQGgIM/ERFR7DKlAeDgT0REFNuUNwAc/ImIiGKf0gaAgz8REZE9KGsAOPgTERHZh5IGgIM/ERGRvUTcAHDwJyIisp+IGgAO/kRERPZ03A0AB38iIiL7Oq4GwOzBPz2zqa0HfyllxBlCCAWVEBERHZ6zof8A3/yPra6mOuIMt9ujoBIiIqLDa9AMAN/86+dAeVnEGd6kJAWVEBERHV69G4BoDP4XXX+P7Qf/8n3FOFBeGnFOSqop/5qJiIgA1PMTgN/v7wuAg389rFmyQElOixatleQQEREdzjFnAPLy8k4AMA0c/I+porQE3+XPjzgnKTkFjTKbKKiIiIjo8I7aAPj9/uaGYcwE0MyMh8fT4B+orcF/33sZRliPOOuEzt0UVERERHRkR2wARo8e7QDwIYAOZjw4ngb/itISfPzK31C+r1hJXs/e/ZTkEBERHckR1wD88MMP4wGcZsZD42XwL99XjDVLFuC7/PlK3vwPOamvX1kWERHR4Ry2AcjNzR0opZxo1kOTU9Lw7bRPzIo3XW11FQ6UlylZ7f9rrbLbomOnrspziYiIfu43DcCQIUOctbW1/wDgMOuhu3dsMSva9oYMG2l1CURElAB+swagtrb2NgC9LKgl4Xm9Pgw76zyryyAiogTwiwZg0KBBjQBMtqiWhHfmqIuQlm7vdRFERGQPv2gAQqHQ7QDSLaoloaWmpeO80VdZXQYRESWInxqAvn37Jkkp77CymEQ25vrb+fZPRERR81MD4HA4xgohmlpZTKLq3S8XQ884x+oyiIgogfzUAAghrraykESV0TgTd9w7AUIIq0shIqIEogE/nffP02eizOv14eHf/w0ZjTOtLoWIiBKMBgBSyssA8BU0ihxOJ+6f8Bec0KW71aUQEVECcgKAlHK41YUkEq/Xh/sefQy9++VaXQoRESUoZ15eni8cDvv5DTo6Gmc2xYOT/so3fyIispTTMIxcIYTH6kISQe9+ubjrgd9zux8REVnOCeAkq4uId8kpqbh0zPU469zR0LQj3sBMREQUNU4pZWdO/5vD6/XhzFEX4fxLxiA1jQcsEhFR7HBqmtZZSml1HXGlVXZbDBk2EsNHns+Bn4iIYpJTStna6iLsLik5BSd07oaevfvhpL5+dOzU1eqSiIiIjsoJIDXSkPMuvhItWmUrKMcePB4vPD4fUtPS0bJlNg/yISIi23ECSIs05PQzz0Wr7LYKyiEiIqJo0AAkRxrCbW1ERET2okHBEcDc2kZERGQvHLmJiIgSEBsAIiKiBMQGgIiIKAGxASAiIkpAbACIiIgSEBsAIiKiBMQGgIiIKAGxASAiIkpAbACIiIgSEBsAIiKiBMQGgIiIKAGxASAiIkpAbACIiIgSEBsAIiKiBMQGgIiIKAGxASAiIkpAbACIiIgSEBsAIiKiBMQGgIiIKAGxASAiIkpAbACIiIgSEBsAIiKiBOS0uoBI7NlVhLlf/RcrlizGvr3FqDp4wOqSiMgiLrcbjRs3QefuPTHglNPRP3cwhBBWl0UUs2zZAOihEN55/UXM+O+nCOu61eUQUQwIBYMoKd6NkuLd+HbuTHTs3A133DcR2W3bW10aUUyy3SeAQKAOkx++E19O/RcHfyI6oi2b1uORcddj3eoVVpdCFJNs1wD8/ak/8Q80EdVLTU01nvjDQ9hbssfqUohijq0agBVLFmPh/NlWl0FENnLwQCXefvV5q8sgijm2agD+M+Vdq0sgIhsqWDgPe3YVWV0GUUyxTQNw8EAl1q9ZaXUZRGRDUkoULv7G6jKIYoptGoBdRTtgGIbVZRCRTRVt32p1CUQxxTYNwMGDlVaXQEQ2VllZbnUJRDHFNg1ASmqa1SUQkY2lpWVYXQJRTLFNA9CyVRtomm3KJaIY07pNO6tLIIopthlR0zMaoXO3E60ug4hsql/uYKtLIIoptmkAAODci66wugQisqF+uYN4JDDRr9iqAfAPHIJ+uYOsLoOIbCQpKRlX33Cn1WUQxRxbNQAAcNeDk9GxU1eryyAiG3C7Pbh3/J/RsnUbq0shijm2awCSkpLxx6dexukjRnFRIBEdUes27fCnp19B7365VpdCFJNseR2wx+PFrfeMx1nnjcbs6Z9hxdJ8lO4tRjgctro0IrJQSmoaunTviQGnnI7Bp42Aw+GwuiSimGXLBuCQ9h0744bb7wcAGIaB2ppqiysiIqu43G643R6ryyCyDVs3AD+naRqSU1KtLoOIiMgW+BGdiIgoAbEBICIiSkBsAIiIiBIQGwAiIqIExAaAiIgoAbEBICIiSkBsAIiIiBIQGwAiIqIExAaAiIgoAbEBICIiSkBsAIiIiBIQGwAiIqIExAaAiIgoAbEBICIiSkBsAIiIiBIQGwAiIqIExAaAiIgoAbEBICIiSkBsAIiIiBIQGwAiIqIExAaAiIgoAbEBICIiSkBsAIiIiBIQGwAiIqIExAaAiIgoAbEBICIiSkBsAIiIiBIQGwAiIqIExAaAiIgoAbEBICIiSkBsAIiIiBIQGwAiIqIE5LS6gEgEgwEsK1iIFUvzUbq3GFUHD1hdEhFZxOV2o1HjJujSvSf8A4egWfMWVpdEFNNs2wDMnz0d7/3zH9hfts/qUogohiz+di7eff1FnHbGORh7/e1ITkm1uiSimGS7BkBKiTf+8RSmf/6J1aUQUYwKh8OYPf0zrF+zEuP/9AyaZ7W0uiSimGO7NQAfv/8GB38iqpddRTvwl4n3oqam2upSiGKOrRqAHds24+P3/2l1GURkI0U7tuGjt1+1ugyimGOrBmDKe2/AMAyryyAim5n55b9RUb7f6jKIYoptGoBAoA4rliy2ugwisiE9FMLS/G+tLoMoptimASjavhWBQJ3VZRCRTX2/cZ3VJRDFFNs0ABUVnL4jouNXUV5mdQlEMcU2DYDX67O6BCKyMZ8vyeoSiGKKbRqA5i1aWV0CEdlYM54FQPQLtmkAmjbLQnbb9laXQUQ21TdnoNUlEMUU2zQAAHDG2RdaXQIR2VD7jp3RqWsPq8sgiim2agBGnH0B2rTraHUZRGQjmqbh2lvuhqbZ6tcdkels9SfC4XTiod8/gfSMRlaXQkQ2cfWNd6J7zz5Wl0EUc2zVAAA/LgZ8/Pl/osMJXawuhYhimNfrw533T8I5F1xmdSlEMcl2twECQLPmLfDXF97E17O+xKxpU7Fl03oeEUxEAIBGjZsg75ShuPCSsWiU2cTqcohili0bAODH73qnjxiF00eMQtXBA9i3txgHD1RaXRYRWcTldqNxZlM0a94CQgiryyGKebZtAH4uJTUNKalpVpdBRERkG7ZbA0BERESRYwNARESUgNgAEBERJSA2AERERAmIDQAREVECYgNARESUgOJiGyARUTyRUrbp379/DwC1hmHoPp/vIAAsWLCgAoC0tjqKF2wAiIgUqawoR011VcQ5QojxQojxwI+HnoVCIQCA3+8/9CNVAEIA9gLYB6BECLFHSrkPQLEQotgwjH1Op3N3IBDYvWzZslDERVHcYQNARNQApftKsPOH7dj5wzYU796JvSV7sLd4N/YW70EgUBetMlL+9/8bAegCAFL+/8SAlBJCCITDYTidzpDf798mpdwohNgohNgkhNhkGMaGgoKCkmgVTLGHDQAR0WEEgwFs3/I9tm7eiG2bN2L7ts3YXbQDNTXVVpfWUC4AnYUQnQGMklL+1Cz4/f5KIcQmAN8ByJdSFrZp02btxx9/HLawXooS4ff7I/6e9M6ns5CckqqiHiIiS+wq2oH1a1dhw5pV2PL9Buwq2o5wOCHHwSop5TIhRCGAAgAFBQUFO60uitTjDAARJRwpJYp2bMV3K5Zg3eqV2LB2FSoryq0uK1akCCFOBXDqob/g9/t3A5gvhPjK4XB8tXDhwt3WlUeqsAEgooRQWVGOtd8tx3crlmDFksUo3cfP3w3QEsDlUsrLdV2H3+/fCmC2EOK/Xq931rx586K2+IHUYQNARHHrh+1bsGTxtyhYNB9bv9/wi4VyFJEOAG6UUt5YW1tbk5OT840QYqbD4fjPokWLdlhdHNUPGwAiihtSSmxavwaLv52LwsXfoGTPLqtLSgRJQogzAZwZDoefzsnJWaxp2r8cDscn/FQQ29gAEJHtFe3YisXfzsU3c2diz64iq8tJZEIIMUBKOUDX9Wf8fv9iAB8bhvGvJUuWFFtdHP0SGwAisqXKinLMnzMdX3/1JX7YvsXqcui3NAADAQzUNO1Jv98/R0r5gcPh+Hjx4sW1VhdHbACIyEYMw8CaVcswa9pUFC7+BnqIB9zZhBPACCHECMMwnvf7/f8yDOP5JUuWrLW6sETGBoCIYl5lRTlmT/8MX335H67et790ADdqmnaD3++fA+Bln8/32bx583SrC0s0bACIKGZt3bwRX335H8yfPR3BYMDqckgtAWAYgGG1tbXFOTk5bzudzpe4iyB62AAQUUwxDANLCxZg6pR3sXHdaqvLoejIEkI8GA6H7/X7/R8KIf6Sn5+/3uqi4h0bACKKCWFdx7fzvsLUKe+iaMc2q8shazgBjJFSXpWbm/ulEOKPixcvLrS6qHjFBoCILKWHQpg1bSqmfvwev+/TIUJKeY6U8hy/3z8dwGMFBQULrC4q3rABICJL6KEQ5sz8Ap9++BbKSvdaXY51nB5I4QRcXkBz/fbvGzoQqgXCAQgjIdfJnQXgrJycnPlCiMcKCgq+srqgeMEGgIiiKhwO4+tZX+KT9/+JfXvj72wY6c2A4cuE9DWGkdQESMpE2JsJeFIg3SmQrh//PzypkIcb8I8lWAURDkIEDkILVQGBSmiBSqCuElrtfoiaUmg1+yBqyiBCtru6+IgOXVCUk5MzH8B9hYWFS62uye7YABBR1CzNX4B333gRO3/YbnUpkdGcCKe1gWzUDuGUlpCpLWGktICR2gLS6TP32e4USODHBuNYPxusgqNqD7SDuyAqd8JRtRvagZ3QDuwEpD2vOv5fI1CYk5PzgdPpHM9dA8dP+P3+iG/HeOfTWUhOSVVRDxHFoW1bNuHtV5/H6pU2fGlzehBu1BHhzC4IZ7SHkd4ORnprQDisruy4CSMEUbEDjoqt0Mq3wlG+FY7yLT9+brCXOinlc+Fw+C/Lli2rtLoYu2EDQESmqSjfj/fe+Dvmz5kOwzjm+2pMMLyNEW7eE0bTbj8O+ultbT3Y15cIB6GVb4ajdAMc+9bDUbYeInDQ6rLqq1RKOTkcDr+ybNkyHg9ZT2wAiEi5cDiMmV98ig/feRU11VVWl3NU0pWMcFZvhJv3hN6sF4zUVlaXFBukAa18K5wlq+AsWQVt3zoII+bH1k1CiNvy8/NnW12IHbABICKl1q1ZiddffBI7tm22upQjMtLbQG/ZD3pWP4Sbdk2IN/xIiXAQjr1r4NxVAMeuQmh1+60u6Wje0XX93mXLlpVaXUgsYwNAREpUVx3E26+9gLkzv4CUEf9aUS7cuBP07IHQswfCSG5mdTn2JiUc5Zvh3FUA585F0A7ssrqi35BS7hNC3FNQUPCe1bXEKjYARBSxgkXz8doLf0P5/th64QpndIDeZjD0NgNhJDe3upy45SjfAueOb+Aq+haipszqcn7tK8MwblmyZMlWqwuJNbZvAEqKd2Pl0nzsLdmD6irbLFihBJecnILMps3Rp18uWrTKtrqc41ZRvh9v/OMpLPpmjtWl/ER6M6C3PRWh9qf/uICPokcacJauh2vbbDiLFgJ6zFzgVANgks/ne5a3Dv4/2zYA27Zswruvv4hVy3lMNNlb9xN7Y8z1t6NztxOtLqVBChbNx8vP/gUHKiusLgUQGvQWfRHqOAJ6Vh9A4xEnVhOharh++AbOzV/BUREzL9/LwuHwlUuXLt1odSGxwJYNwJyZX+DVF56AHor5FalE9eJwOHDNjXdh5PmXWF3KMdXUVOPNl57B3K/+a3UpkJ40hDoMQ6jjmZzij2GO8i1wf/9fOHZ8EwvHGVcDuLOgoOCfVhdiNds1APkLvsaTf3okJhcZEUXqpjsfxBlnX2B1GUe0fu0qvPDEZJQU77a0DiO9LYJdz4feZvDxHadLlhB15XBvmQnX5ukQddbOHEkppwSDwZtWrlwZA1NY1rBVA7C/bB9u/91oBAJ1pj+LyApOlwvPvfohslq2trqUXzAMA//51zv417uvIRy27ghZvWkPhLpdBD3rZEAIy+qgyAhDh3P7PLg3/BvaQUt3EOwAcFWi3jSoWV1AQ3zywZsc/Cmu6aEQPnr3NavL+IXKinL8+dG78cFbL1sz+AsBvWUOaob9DbVDH4Peoi8Hf5uTmhOhDsNQc9aLqMu7z8rFmm0BzMvJyZk0evTohDsMwjYzAIZh4LrLRsbGgiMiE7ndHrz58Qx4vSZfKlMP61avwNOPTbBse5/eoi8CJ14Bo/EJljyfokRKOPcsgXv1h1YuGFzgdDovXbhwobXft6LINktlf9i+hYM/JYRgMICt329A9559LK3j808/wHtv/N2St369+UkInngFwk26Rv3ZZIH/zfLoLfrDtXMh3Ks/sOLTwCBd15f6/f4LCwoK8qP9cCvYpgHYX7rP6hKIoqZs317Lnh0I1OGlZx7Dt19/FfVnGxntUNfraoRbnBz1Z8cMQ4cIByCdSYn3qUMIhLIHIdQ6D65tc+BZ+1G0DxZqIaWcl5OTc1NhYeHb0XywFWzTAGiOhPs8QwnM4bTmj2bpvhI88YeHsGXT+qg+1/A2RvDEy6B3GA4pbLU0KSIicBCO3Uvg3LsajsrtP771/uzwHOlKhpGejXBGe4RbnIxw896QDreFFUeJcCDU4QzobYfA9f1/4V77Lwg9Ouu/hBAeAG/5/f4Buq7fHs+3C9qmAWjSlHt8KXFkNon+WfXrVq/AE394CAcPRO9adak5EexyAYLdRwNOT9SeazVH2Ua4N06FY2c+hDzyNckiVP3j9bylG4DN0yGdXujtT0ewy7kwkrOiWLE1pMONYNcLEcoeDM+qt+DauRCI3hbwG51OZ7tBgwZdtmDBgvJoPTSabLMIUEqJm646D2Wl1k2NEkVDckoq3vzX9KjOAnwzZwb+/syfo3q4VjirD+pOviGhrt/Vasvg/u5duLZ/HVmQcCB4wlkI9rwS0pWkpjgbcOxbC8+yV+Co3BHNx34P4PyCgoJ10XxoNNhmrk0IgSHDR1pdBpHpThk6ImqDv5QS/3r3dTz/t8lRG/xlUiZqBzyImlN/n1CDv3PHN0iedmvkgz8AyDDc3/8XyTPvhFb2feR5NhFu2gM1ZzyNQK8x0fwU0gnA4tzc3GHRemC02KYBAIDzLr4S6RmNrC6DyDRJySm4+Ipro/KssK7jhSf/gCnvvR6dkzWFQKjjCFSf+SL07AHmPy+GeFa9DV/+U4Di79iieh+S5j4E5475SnNjmuZEsNvFqDnrBejNe0frqWlSyi9zcnJGR+uB0WCrBiA5JRX3PfoYnC4e/UnxR9M03PPwH5HRqLHpz6qrq8Vffn8/5s+ebvqzAECmZKHm1D+grt+tCTVlDQCeFa/DveHfpuULQ4e34Fk1Mws2YiRnoXbIZNT574J0JUfjkW4hxIc5OTk3ReNh0WCrBgAAuvfsg0mPv8CZAIorXq8P9034C/r0zzP9WVUHD+APD9+JFUsWm/4sCIFgp7NRNeI5hJv3Mv95Mca18TO4N31h+nOENOAtfAGOvWtMf1asCbUbiuozn4fe/KRoPM4hhHg5Nzd3fDQeZjZH69atfx9pyAWXjoXbHb0VvE2bZeHUYSMRDNRh5w/boeuW3y5FdFw8Hi9OGz4S9034Czp16WH688rLSvGHh++MyjY/6UlHXd79CHUelZDX8zpK18FX8CxwlFX+akk49yyD3u5USKf1p0hGlSsJetshkL7GcOxdHY0bB4dmZ2c32blz50wAtr2Zzja7AI4kFAxi/dpV2FuyB1VR3L5EFInklFQ0bZaFbj17w+PxRuWZ+/YWY9L9t0blJj+9ZQ4COXfA8KSZ/qxYJEI1SJp5F7Tq6O9a0pufhNpTJyfeIUL/ox3YBV/+k9DKo3Kk8Ls+n+/aefPm2fIt1PYNABEdW0nxbky6/1bs21ts6nOk5kLw5OsQ7HiWqc+Jdb7C5+DcNtey5wdOvhHBTmdb9nyrCSMEz8p/wvX9NPOfJcR/GzVqdPH06dMDx/7p2GK7NQBE1DB7S/Zg8oO3mz/4JzdF7dDHEn7wd+7Mt3TwBwD3yjehVUR1r3xMkZoLdSffhNpBj0C6U8x9lpTn7N+//199+/a13ep0NgBEcax49048es9Npk/76y1zUHXGswhndjb1ObFOBCrhXfoPq8uAMELwFj4LmP8tPKbprfyoHv4UjIz2Zj/qPKfT+a7drhRmA0AUp/btLcbvH7zd1NMzpdAQOOlq1A56BDD5TSvmSQlv4fMQgdhYi+Qo3wrPuilWl2E5mZKF6tP/Cr3tqWY/6tKioqI3YKNx1TaFElH9VVaU44+P3GXqtL90+lA36GEEu16YsAvOfs69dQacu5daXcYvuNd9DMe+tVaXYT2nB7W596Cu362m7kiRUl7t9/tfA2CLPxBsAIjizIHKCvz+wduxq8i8b8BGchZqhv8Nessc055hJ1p1Mdwr37K6jN+SBnyFz0PotVZXEhNCHUeg9pQJZh8cdG1ubu5TZj5AFTYARHGktrYGf3r0bvywfYtpzwg364ma4U/CSMs27Rm2IsPwLn46atfVNpSoKoYnFpsTi+jNe6Pm9MdhJJt346aU8u7c3Nw/m/YARdgAEMWJsK7jyT89YuohP6G2p6Lm1N9Derjt9xD32ilwlG20uoyjcm2ZAcfuJVaXETOM9DaoGfY3hBt3Mu0ZUspHcnJy7jbtAQqwASCKA1JKvPTsX7Byab5pzwh2vQB1/rsT8lS/I3GUb4Fn/SdWl1Ev3sLnIeoqrC4jZkhvBmqHPga9ld+0ZwghnvT7/eeZ9oAIsQEgigMfvv0Kvp71pTnhQiBw0jUInHQNF/v9nB6AN/8p22y10wIHYmKLYiyRDjfqBj6EYIfhZj1CA/BhXl5eTC6WYQNAZHNzZnyOTz98y5xw4UCt/x4Eu15gTr6NeVa9Ce3ALqvLaBDnrgK4ts2xuoy8QIzIAAAgAElEQVSYIoWGQL/bEOxyvlmP8BmG8R+/39/arAccLzYARDa2bvUKvPLCE+aEa07UDrgfettTzMm3MWfJSri3zLC6jOPiWf4qtKo9VpcRW4RAoPfvEOg1xqwntATwxZAhQ2LqsAw2AEQ2tbdkD/72x4cRNuE2TKk5UTvgAeitzb+e2G5EqBrewucBac9L4IReB2/BcxBRu6XQPoLdLkagz3VmferqXVtbO2XIkCExs4iGDQCRDdXUVOOxCffiQKUJi7qcHtSdMtHUxVF25lnyd4iaMqvLiIijdD1cG6daXUZMCnY+F4He15rVBJxVW1sbM2cEsAEgshkpJZ57fBKKdqi/7lRqLtQOGg+9+UnKs+OBa/tcuIoWWl2GEp7V70Pbv9nqMmJSsPO5CPS53qwm4M7c3NzrzQhuKDYARDbz74/extKCBeqDNSfqBj3Mwf8IRE0ZPMtft7oMdQwdvoJnIcJBqyuJScFO5/w4E2ACKeXzfr+/lynhDcAGgMhG1qxaho/eeVV5rhQa6nLvgd6ir/LsuCAN+AqegQhVW12JUtqBIri/e8/qMmJWsPO5CJ54uRnRPgCf+v3+NDPC64sNAJFN7C/bh6cfexSGoXjxltBQ578boeyBanPjiHvjZ3DsXW11GaZwf/8FHCXfWV1GzAr0uAzBzqPMiD4BwCtmBNcXGwAiGwiHw3jqz+NRWVGuPDvQ+1pu9TsK7UAR3Kvft7oM80gD3oJn4252Q6VA7+ugtx9qRvRlOTk5N5sRXB9sAIhsYMp7r2PDWvVvacFuF5r1dhMXhKHDt/gpCCOkLNPn80Wc4XA64XS5FFTzI622DJ5l6j8txQ0hUNf/Dugt+5uR/mxubu7JZgQfCxsAohi3bs1K/Pujt5XnhtoMRqCnaQefxAX3mvehVWxTlieEwG233RZxjtfrw6VXqV1I7toxD64iExaXxgkpNNTl3QujUQeluUIIj2EYU/r27ZuuNLge2AAQxbCqgwfw3OOTlH/3DzfriTr/OEDwV8CROErXw7VB7V75iy++GHl5ag5XOv+SMejes4+SrEO8S1+CqClVmhlPpNOH2sGPQiZlKs0VQnR0uVyvKQ2tB/7pJ4ph/3jmMZTuK1GaaSRnoXbAg7zV7yjMOC2vbdu2St7+D9E0DbffNwFJScnKMhGsgrfwBduechgNhi8TNYMnQjoj/5Tzc1LK0Tk5OaZsOTgSNgBEMWr+7OkoWDhPaaZ0+lA76BFIT6rS3HjjXf6K0vPyHQ4HJk2aBK/XqywTAJpntcQ1N49TmuksWQnX5mlKM+ONkdEOdbl3K59BE0K84Pf7mysNPQo2AEQxqLysFP98+Rm1oUJDbd69MDLaqs2NM86d+XBum6s087rrrkP37t2VZh5y+ohRyBusdoW6Z+Wb0Cp/UJoZb/RWfgR7XKo6NhNA1FZjsgEgikEvP/c4qg4eUJoZ6DUGYXNWMccNEaiEd+k/lGZ269YNY8eOVZr5azfe8QAyGqv7Li2MELwFzwCG+oum4kmg+6XQW+eqjj03Nzf3EtWhh8MGgCjGzJ89XflRv3rLHAS7XKA0M+5ICW/h8xCBSmWRPp8PkydPhtNp7nqLtPQM3HHvBAiFZ9c7yrfCs+5jZXlxSQjU+cfBSGutNNYwjBcHDx7cVGnoYbABIIohlRXlyqf+ZUoWav13mXWxSdxwb50B5+6lSjPvuusutGnTRmnmkfTul4vhI89Xmule9zEcZRuVZsYb6fShNu8BwOlRlimEaBoIBF5UFngEbACIYsjbrz2vdOpfai7UDngAcKcoy4xHWnUx3CvfUpqZm5uL8847T2nmsVx9451o2VphwyHD8OU/DaHXqsuMQ0ZGW9T1uUFpphDiEr/ff7HS0F9hA0AUI1avXIpv5sxQmhk8+TqEG3VUmhl3ZBjexU9D6HXKIjMyMjBhgtop+frwen0Y9+BkOBR+chBVxfCsUn8QVbwJdRiOULvTVMe+2Lt37wzVoYewASCKAXoohNde/Bukwv3XesscBDuepSwvXrnXTlE+zf3AAw8gM1PtYTH11bFzN1x4qdpFh67N0+HYvURpZjyq63szjLRWKiObezyeSSoDf44NAFEM+M+Ud7GraIeyPOlthEDOHcry4pWjfCs86z9Rmjlq1CgMHWrKxTH1NvrK69Cpaw+lmb7CFyDqKpRmxh2nF7U5dwPCoTL1try8vK4qAw9hA0BksbLSvZg65V11gUKgrv/tMDyWXjUe+/QAvPlPKt3q1rJlS4wbp/ZgnuPhcDgw7sHJ8HrVnVZnxhbJeGRkdkKg+2iVkS7DMF5QGXiI7c8CNQwDW7/fgNJ9JTh4QN32HYpPaekZaJbVEu06dIr699kjefeNv6OuTt0iq+AJI6G37KcsL155v3sL2oFdyvI0TcOECROQnKzwaN4IZLVsjauuuw2v//1JZZnOXQVwbZ+LUDtrZzhiXbDHJXAWL4ejbJOqyGE5OTnnFBYW/ldVIGDjBqC66iCmfvwe5sz43JQ70im+NWrcBGeOugjnXHiZ0rekhtq0fg0WfP2VsjyZkoVAL3MPnYkHPx53O11p5pgxY9Cnj9rLeSJ15qiLsHzJIiwvXKQs07PsFYSbdIOR0kJZZtwRDtT5xyFp5jiIcFBNpBBP9ejR46u1a9eqCYRNPwF8v2Et7rrxcvz7o7c5+NNxKd9fig/ffgX33HQlfti+xZIapJR4+7Xn1S38EwJ1/W4BnGrPm487Jlx407lzZ1x/vdrreVUQQuDWux9Bapq6m2bNuCgpHhmprRDsofRun87Jycl3qQy0XQOwZdN6THrgNpSX8cpKilxJ8W48eu/NShfg1dfC+bOxYe13yvJCHc6A3ry3srx4pfrKW5fLhUmTJsHlcinLVKlR4ya4ZdzDSjPNuCo5HgW7nodwow7K8oQQj6q8LMhWDUBdXS3+OvlBBALq9usSVVcdxBN/eBBhPXrnnod1HR+9o+7OD5mUicBJ1yjLi1eu7XPhKlJ7zPKtt96Kjh1j+6wF/8AhOHWY2i2h7jXvQ6vYpjQz7gjHj7tx1O0KSAPwB1VhtmoAPv/kA5SV7rW6DIpDO3/Yjq+mRe+NZvaMz7FnV5GyvLre10O6kpTlxSNRUwbP8teVZvbp0weXXqr8RjhTXH/rvWjaLEtZnjB0+BY/BWGElGXGo3BGBwS7Kj0R8nc5OTntVQTZqgGYN+tLq0ugODZ35hdReU4wGMCnH76lLE9v3ht69gBleXFJGvAVPAMRqlYWmZKSgkmTJkHT7PFrNCk5BXc9NFlpvdqBIrhXv68sL14Ful8GI0nZ3T4uAI+oCLLHf7kAdhXtQEnxbqvLoDi2bcsmHKg0/6CTL6dOUTaTJTUnAn1vVJIVz9wbP4Nj72qlmffffz+ystS9UUdDtx4nYdSFShemmfLvNu44PQj2vkZZnBDiahWzALZpAPbtLba6BIpzUkrT/zurq6vF55+oe2MKdr0QRqrSo0fjjhlvqUOGDMGIESOUZkbLFdfcjHYdOqkLNGF2JR6Fsgch3KynqjiXpmnjIw2xTQMQzQValLj0kLnfM7/68j/KZhkMb2MEu12kJCtemfGdukmTJnjkESUzsJZwulwY99BkuNxuZZk/rq94TVlevKrrexOgqTl+R0o5tn///hFtMbBNA9C4ibLvJ0RHZOZ/Z3oohM8/+UBZXrDXVdzzfwyqV6oLITB+/Hikpdn7mOXsth1w2Vi1n45c279WvsMi3hhp2Qi2H64qLuJZANs0AG3adkBySqrVZVAca9osC02aKtti+xuzpn+G8v1q9p8bGe2gq796NK6YsVd99OjRyMvLU5pplXMvugInntRXaabqMxbiUbDn5ZBOZaePXu33+4/7e45tGgCH04ncgUOsLoPi2KAhw027HyCs6/js4/eU5dX1uhpS2OaPb9SZcVpdu3btcNtttynLs5qmabjzgUlqX6xMOGUx3khPOkJdz1cV5wDw0PH+w7b6DXLxldfCGaOnbZG9JSWn4NyLrzQtf9E3c5QtMNSbn4Rwi5OVZMUrz7JXoFXtUZbncDgwceJEeDweZZmxILNJM1x7y91KM824ZyHeBLucD+nNUJIlpbxywIABzY7nn7VVA9CseQvcfNdxNztEhyWEwC3jHkZaupo/kIfzxX8+UpYVPPEKZVnx6NCNdSrdcMMN6N69u9LMWDFk2EgMPHWY0kzVNy3GG+n0ItD9EiVZQgiPYRjHtaDDVg0AAJw2/Gxce8vdtjl8g2Kb0+XCbfc+igGnnG7aM9atWYktm9YrydJb9EW4SVclWfHIjDvre/bsibFj4/uGxZvufFDt+hc9AG/+k4DB3VtHonccAZmUqSRLSnlr3759Gzw9bstR9OzzL8Ufn3wZnbr2sLoUsrEevU7GX559HacNP9vU5/z33yrf/tUe4hJvfIUvQNSpO8zJ5/Nh4sSJcf/CkZySilvvGa90DYyjfCs86z9RlhdvpOZEsKuybbwtnE5ng8PUbEi0QNcevfD4c29g25ZNWLWsAHtL9uDggUqry6IYl5aegWZZLXFy/wHIbqvkOO2jKinejSWLv1GSpbfMQbixwgNc4oxr83Q4di9Rmjlu3DhkZ2crzYxVJ52cgzNHXYTpn6sbtN1rp0DP6oNwZhdlmfEk1PEMuNZ/Cq22TEXcnQAa9LZh2wbgkPYdO6N9x85Wl0F0WLOnfwbDULMSPdh9tJKceKRVF8Oz6i2lmbm5uTj33HOVZsa6q2+4E2tWLUfRjq1qAmUY3sVPo+bM5yB5ZsVvSM2FULcLVR2ilJeTk9OvsLBwaX3/gfie1yKyUDgcxtdfqbnAKtzsRIQz2ege1v8GGaGruyY8IyMDEyZMMG1baKxyud2484FJcDjVvRtq1cVwr3xLWV68CbYfDulRc7CUEOKOhvw8GwAikxQumq/s4J9g1wuV5MQj99opcJRtVJr54IMPIjNTzQItu+lwQhdcfPnvlGa6t86Ac3e9X0wTi9OD0AlnqUq7rH///vW+oYoNAJFJZk//TElOOL0t9Czu+z8cMxaanXvuuTjttMQ+ZfGiy69B524nqguUEt7C5yECXKd1OMFOZ0M6lNzN4BZCjKnvD7MBIDJBSfFufLdCzYK0UNfzgQSbiq4XE7aatWzZEuPGjVOWZ1cOhwPjHpwMny9JWaYZWzTjhfSkQ287REmWEOKq+v4sGwAiE3wzZ4aSxX/Skwa9zWAFFcUf1YfNaJqGCRMmIClJ3aBnZ81btMLYGxr0SfmYnDvz4dym9pCmeBHscq6qRr9XXl5eve4dZgNAZIJvv56pJCfUfhikxuOvf82M42bHjh2LPn36KM20uzPOvgD9cgcpzfSueA1a9V6lmfHASMtGuKmas23C4XC9zjVnA0Ck2Pcb1mJX0Y7Ig4SG0AlnRp4Tb0y4cKZz58647rrrlOXFk9vueRQZjRoryxOhGnjzn1F6UVO8CJ0wUkmOEOKq0aNHO471c2wAiBT7Zu4MJTl6i34wks27ntiuVF8563K5MGnSJLh40dhhpaVn4CbFd7A4StfBtVHNItl4Emrlh+FV0my12rFjx6nH+iE2AEQKhcNhLJg3S0lWqOMZSnLiiWv713AVLVCaefvtt6Njx45KM+NNTt4pOH3EKKWZ7tXvQavYpjTT9jQnQu3V3EtSn8WAbACIFFqzahkOVEZ+Fr30pEPP4vfonxM1ZapOTPtJ//79ccklam5li3fX3noPslq2VpYnDB2+xU9BGCFlmfFA7zhc1WLAi/Ly8nxH+wE2AEQKFSycpyQn1HYIoNn+pG51pAFf4bMQoWplkampqRg/Xu0FOPHM6/XhjvvUXoykHSiCe/X7yvLigZHcHOHMbiqi0sLh8DlH+wE2AESKGIaBQkUX/4TaD1WSEy/cmz6Ho+Q7pZn3338/srLqfWga4cdL2M6/pN7nzNSLe+NncOxdrTTT7kLthijJEUIc9TILNgBEimxavwblZZEvTgtndICR0S7yguKEGW+Jp512Gs44g2ssjsdlY27ACV26qwuUBnwFzyid3bG7UPZAVdt/zzzabgA2AESK5C/4WkkOD/75fz99Jw4HlWU2bdoUDz/8sLK8RONwOnHHfRPhdnuUZYqaMnhXvK4sz/bcKdBb5ahIalJUVJR7pL/JBoBIkWWFC5XkhLIHKMmJB+417ytdKS6EwPjx45GWpub2tUTVuk07XHntLUozndvmwlWk5s9QPNCzlR3AdMTDBdgAEClQUrwbu3f+EHFOOLMzZAq/SwOAo3Q9XBumKs289NJLkZt7xBciaoCzz78Uvfup/XfpWfJ3iJoypZl2pbfoCzi9EedIKY+4EJANAJECywsXKcnRswcqybE7odfBW/Cc0tPi2rVrh1tuUfvWmsiEELjtnvFISVU3myJC1fAWPq/0lEfbcnpU3QLaa8CAAW0P9zfYABApsGLpYiU5eus8JTl251n2CrSqPcryHA4HJk6cCI9H3XdrAhpnNsUt49Sup3CWrIR7i5rTNO1OV/Q5UNf1sw7319kAEEUoFAxi7arlEecY6W149C8A564CuLarvTHuhhtuQPfuCleu009yB52Gwaep3VHhWfWm0pse7Upv2U/JeSCapp192L8ecTJRgtu0YQ3q6mojztFb9FNQjb2ZcWd8z549MXbsWKWZ9Es33H4/mjZTuHZFD8Cb/xRg6OoybUg6fQg3jbxxlVIO7dGjh/vXf50NAFGE1ih4+wcAvVV/JTl25it8AaIu8qOUf8rz+TBxotrT6+i3klNSces945X+e3aUb4Fn/SfK8uxK0TqApNTU1N+cLc4/FUQRWrd6RcQZ0pWMcGYXBdXYl2vzdDh2L1GaeffddyM7O1tpJh1erz79MfI8tfcquNdOgaNsk9JMu9Fb9FWSI6X8zb5CNgBEEdBDIXy/YW3EOeGs3oA45vXdcUtUFcOz6m2lmYMHD8a55x71JFRSbMx1t6FNO4U3K8owvIufgtDr1GXajJHeBjK5acQ5QojfbDFiA0AUgc2b1iMQiPyXU7h5TwXV2JQMw5f/NIQe+TqKQzIyMnjanwWcLhfufGASnC4lx9gCALTqYrhXvaUsz4705r0jzpBS/mZLARsAogisX7tKSY7erJeSHDtyr/sYjrKNSjMfffRRNG7cWGkm1U/7jp1x6VXXK810b5kB5+6lSjPtJNzsRBUxzfPy8k74+V9gA0AUARXT/9LXGEZqKwXV2I+jfCs86z5Wmnneeedh0CBlx6jScTj/kjHo3vM3a86On5TwFj4PEahUl2kjelM1M4ThcPgXnwHYABBFYMum9RFn6M0Sc/pfGCF4C55RutWrVatWuOuuu5Tl0fHRNA233zcBSUnJyjLN2CJqFzIpU8kR4b9eB8AGgOg4lZeVonRfScQ54SbdFFRjP56V/4RWGfn9CYdomoZHH30USUlJyjJVqqqqwtSpU/HQQw9FnFVddRAP3H4NZk2bqmQNihmaZ7XENTePU5rp3Jmv/JAou9Cb9lAR84upsciPGCJKUN9vWqckx2iSeNv/nCUr4do8XWnm1VdfjT59FE47K7JhwwZMnToVM2fORG2tuoWOW77fgC3PPY533/g7BpxyOkaeN1rtCnwFTh8xCiuWLMbib9UN2p7lryPcrCeMpMhXxttJuEk3uLbNiTSm68CBA1MXLlx4EGADQHTctn6/IfIQpwfh9MPe0xG/glXwFr6g9MKXzp0749prr1WWF6mqqirMnj0bn376Kb7//ntTn1VddRCzpk3FrGlT0bFTVwwfeT5OOf1MeDyR3ySnwo13PID1a1ehYr+aW/5EqBrexU+jduifIUXiTGKHG3dSESN0Xe8BIB/gJwCi4/bDti0RZ4Qbn5Bw+/+9S1+CqClVlud2uzFp0iS4FG49O14bNmzA448/jlGjRuHxxx83ffD/tS3fb8DLzz2OG64YhZefexw7tm2O6vMPJy09A3fcOwFCCGWZjtJ1cG38TFmeHcj0NqquB/7pWwJnAIiO047tKhqAzgoqsQ/X9q/hKlqgNPP2229Hx47WTX1H822/vmJtVqB3v1wMO+s8zJo2VVmme/V70LP6wMhopywzlkmhIZzRAY7SyD49apoWXw1AKBjE/v2lqDp4wOpSyEJutxuNGjdRej/5kQQCddhbvDvinHBGBwXV2IOoKYNn+WtKM/v374/Ro0crzawvs77tq3ZorcA7r7+IgacOw1nnXoy27U849j+o2DU33YW13y3H7p1qFn4KQ4cv/ynUnPE0pGb97E80GJmdIm4A4mIGQEqJgoXzMGvaVKz5bjn0UMjqkihGtMpuiwGnnI5RF16O5JRUU55RtH0rDMOIOCdR3l4gDfgKn4UIVSuLTE1NxaOPPqp0avlYYvFtv75qqqt+MysweOgIeL2+qDzf6/Vh3IOT8fDdNyCsq9n6qVX+APeaDxDodbWSvFgXzmgHBa3OT6cKOVq3bv37SNMuuHQs3G5PpDH1VrG/DI9NuAefffI+ivfsUvKLmOLHwQOVWLd6Bb6aNhUts9uidXY75c9YtaIQhYu+iShDak4Eel8LJMBCJvemz+DaMlNp5oQJE9CrV3ROUNywYQNef/11/PGPf8S8efOwf//+qDzXLOX7S7G0YAFmfPEp9hbvRpNmzZHRKNP05zbObIpwWFdygdYhjrKNCDc9ETK5mbLMWCWkVPHnKLVNmzYv7Ny5s9Z2v3n2l+3DQ3ddh3VrVlpdCsW46qqDePKPD2P2jM+VZ+/ZVRRxhpHeBtBsOwlXb9qBIrhXv680c8SIERg+fLjSzF87tG9/zJgxuOaaazB16tSYnuo/HodmBe69ZcxP5wrU1Zn7v3H0ldehU1cle9p/JA34Cp5WOrsUq4y01kp2PhiG0R2w2S4AwzDw18kPYt/eYqtLIZswDAOvvfg3JUf2/lzx7p0RZ8hEmP43dPgWPwURDiqLbNq0Ke69915leb9m9Up+q/x6B8G2LeZcw+twODDuwclKPz38uL7kdWV5sUo63EpOBJRSngjYrAGYO/MLbN6o5vAVShx6KITX//EUpMJ958V7dkWcEU5pqaCS2OZZ/T60im3K8jRNw6RJk5CWpnahZyK87dfXoVmB+24da9qsQFbL1rjy2luVZrq2z4WzaKHSzFhkpLeJOEPTtM6AzRYBTvtM7aUhlDg2b1yHLZvW44Qu3ZXkqZgBMFLjuwFwlK6Ha6O6bV8AcOmll6Jfv37K8uyykt8qP+0geO0FDBwyHCPOuRDtO6rZunrWuRdjxdLFWF64SEkeAHiXvYzqJt0gffF7E6Sh5sWhNWCjGYCy0r0xcagF2deyQjVvBwcPVKK66mDEOTK1hYJqYpPQ6+AteA5Cqlug2759e9x8880R5/Btv+FqaqqVzwoIIXDr3Y8gNS1dUZWACByAr/B5padMxhpDzSeA1oCNZgBULLqixLZHwVs7ACUXAAGAkRK/DYBn+avQqvYoy3M6nZg4cSI8nuPfbcS3fTVUzgo0atwEt4x7GE/8IfILkg5xFK+Aa8sMhE44S1lmLJEpzVXE2KsBMHtlKsW/muoqJTkqzjSXnnRIZ3T2X0ebc1eBiktLfuHGG29Et24NvzXRzvv2Y92hWYFIzxXwDxyCU4edhfmz1V0O5V31JsLNesFIa6UsM1aomAEA0GL06NEO2zQA6emNrC6BbE7VPuey0r0RZ8jk+LzJzIw723v16oWrrrqqQf8M3/aj69ezAmecfQE6nFD/Wy6vv/VerPtuhbodXnoA3vynUDPsibjbamv4mkAKLdLPa87du3c3t82/mex2HeByuxEKqttORImlIb+QjqasdF/EGYbP/ENXrOArfAGirkJdns+HiRMnQtOOvVyJb/vWO95ZgaTkFNz10GRMvO8WZQe7Ocq3wL3uYwRPvFxJXszQnICvEVAT2UykYRitbbMI0Ov1offJfqvLIJtyOBzIGXCKkqyK8sg/ARje+Ful7No8HY7dS5Rm3nPPPWjduvVRfyZR9+3HukPnClx/2dl4+bnHsXXzxqP+fLceJ2HUhWoHa8+6j+EoM+c8AytJb+Qz4lJK+zQAADD6ymujeu43xY9hZ52Hxplqpt0rK8ojzpBJ8TUDoFXtgXfVW0ozTznlFIwaNeqwf+/gwYOYMmUKrrjiClut5E9OTUf/wcMiznG5PTgp9xQ4XW4FVZmrtrYGs6ZNxf23XY0H7vgdZk2bitramsP+7BXX3Iw27RTe7CjD8BY+C+gBdZkxQEUDAKC1bT4BAEDHzt0w6sLL8fmnH1hdCtlI8xatcPnVNynLU3HrZFw1ADIMb/4zgF6nLDIjIwMPPfTbleF2/bbfun0n5A0diX6DhuFARRmWfDs7ojyH04nzxt6MEaPHYt2yfCz5ZhZKdu5QVK15tmxajy2b1uPtV59HzsBTMWTYSPTq0/+nv+90uXDPI3/E/bdfo+xzr3ZgF7zfvYW6k9X9DrBa2JsBR4QZhmE0s1UDAABjrr8dlZXlSleMUvxq2iwLj/zhKaV7jQ8eqIw4Q7rNuaXQCu51H8NRdvTp3YZ69NFH0bjxj59J7Ppt35ecgt7+UzDojPPQwoQLqQDA60vCyYOG4uRBQ7Hnh21YtmAO1ixZhGBAXTNmhtraGsyfPR3zZ09Hdtv2GDJsJIaPPB/JKanIbtsBl429Ee++/qKy57k2T4feoh/0Fn2VZVpJxQyAECLVdg2Apmm48/5J6Nz1RHz0zqtKfhlT/BFCYOCpw3DtLfcgPUPtDhIlMwDuZAWVWM9RvhWedWpP6LzgggswaNCguHjbd7mjN0Xfok17nHPF9Rh2wRW2mhUo2rEN777xd3z07mvonzsYw0eej3MvugIrlizGmlXL1DxESniXvIjqEc9DeuKg+fYoOQrbfg3AIWeOuginDB2BxQu+xsql+dhbsofNQIJzu91onNkUXbr3RN7goWq/Jf7MwYOcAQAAEQ7Cu2FCUWQAACAASURBVPhJwFBztzvw49R/VlYWrrjiCmzdulVZrtkOfdvPPe0sNGuZbWktP58VKNq6CcsXzMHaZQXQQ7G9gyoUDGLRN3Ow6Js5aN+xM3r3y8X6tasQ1tX89yVq98O77CXUDnhASZ6VpCsp4gwhRIptGwDgx60jp48YhdNHHH6hEJFqYV1X8m1Suuw/A+BZ9Ra0g5FfivRzFRUVeOmll5Rmmsmqt/36yu7QGdkdOmPE6KttNSuwbcsmU24jdBYthGv71wi1O015djSpaACklGm2bgCIoi0QVLSa2J2iJscizpKVcG2eZnUZlojGt33V7LpWwAye5a8h3OxEGEk2PoxLQQMAwN4zAETRFgwoaACEgNRckedYJVgFb+ELcX3hyuEcetvvO/B0uCO4k8Bqdl0roIoIVcOb/zRqT/szpLDVTvifqJgBgJ3XABBZIahgBkBqLsDG51l4l74EUVNqdRlRYce3/fpK5FkBx751cG36HMEu51tdynGRTq+KGDYARA2hZAbAEXvfiuvLtWMeXEULrC7DdPHytl9fiTgr4P7uXejNe8PIaGd1KQ0nIj0FAJBS8hMAUUPoeijiDOmw54AiasrgXf6a1WWYJpZW8lvFrjsIjocwdPgKnkX18Cftd2GQgnqFED6b/a8mspZU8N1bOOz5/d+z6k0gqOZK5ViSaG/79WXXHQQNoVVsg3vzNAQ7n2t1KQ2jRT4DAMBgA0BEx+Qo2xBXU//x/G1ftXhfK+BZ+y/obYfAUHO4TlRINTMWYTYARFEmI7vH2xKeVW/bftW/EAIdupyI3KEj0ds/GA6nPWdirPTTWoHzL8d3hQuwfMEc7N290+qyIhOsgmvDvxE46RqrK2kAJbsXOANA1BAqPgHYbSDVDu6Go3S91WUcN77tq+dNSkbOkBHIGTIiLmYFXNu/RqDnVfZZC2BEvhYJnAEgahgV11HbbQega/tc2zUtAL/tR0s87CAQdRVwFq+A3rL/sX84Bgg1x29zBoCoIVwK7l+Xhr0+ATh3L7G6hHpLTk1Hv0GnI2/oyIRdyW8Vu+8gcO4qtE0DgDBnAIiiTsV57yKs6DjhaNAD0CqLrK7imPi2H1vsuINA27/Z6hLqT8EnACEEGwCihnArmAGAbp8GwFGxFZBhq8s4rOSUNPQbPIxv+zHMTrMCjgM/QBghexzTrWAGQErJTwBEDaHi7VIYIQhp2OIcci0Gj/zl2749xfysgKFD1FVA2uCSICGVrAEIsQEgagCPR8kZ3EA4ADh9arLMpMfGqm6u5I8fMX2uQIz8934sij4jlrMBIGoAp8sFp8sFPRThFFyo1h4NQNjaqdoOXU9E3tCzuW8/Tv36XIEl82ehrGS3dQWFbNIAqDmRszz25yCJYkxKauQnhonAQQWVRIHL2ialrGQP9hRtw4GKckvrIHNVHazEgYr9qK22+M+FW8k1u+arq4w4QghRxhkAogZKSUlFxf6yiDJE0B4NgJHUzNLnV5aXYe4XUzDvy09wQveTkDt0JHr1HwhNzVnoZKGwrmPjd0uxbMFcbN+4Vs0hW5EQwhbf/wFAU/P7Yz8bAKIGSk5JjThDBA4oqMR8RlITq0sAABiGgU1rVmDTmhVo3LQ5/EPOhH/ImUjLaGx1adRA+/bswvIFc7Cq4FvU1VRbXc5PpDsN0iZXdav4/SGl5BoAooZS8wkg8im8aJDJzWF4G0Or2291KT/Zv68E0z9+GzM/fZezAjYRc2/7hxFu2t3qEupNxQyiEKKCDQBRA6WnN4o4wy4zABAC4aze0LbPtbqS3/j5rEB6o0z0HXQ6Bg4bhUZNrP1sQf+vtGQ3Vi6ej5WL5qGmKrY/e+lZva0uof7qlPz+4CcAooZqlBn5tLhWG9kagmjSW/X/8T6AGPb/awU+RY+T/cgbOhKde/aFpnGdc7TpegjrluVj+YK5+GHLRqvLqR+hIdyir9VV1JumYAaRnwCIjkOjxpE3AKJmn4JKokNv5YeR1BSaDWo2jDBWL12E1UsXcVYgyuz0tv9rh/4btwtRvTfyDCFK2QAQNVBjFTMANfaZAYBwINTlPHhWvG51JQ3CHQTms8O3/foIdjnf6hLqTQSrIEKRL54UQmxnA2CycDiMfSV7sHvnD9hbsgd1tTWoqamGw+GA2+NFWnoGmme1RKvWbZVMLZP51MwAxN4Ru0cT7DAcrk1fQKsusbqUBvv1DoLc085CzqkjuIMgAodW8n9XsAC1NUoOpbFMuGV/hJt0tbqMelP0Z7Bu8eLFe9gAmGDf3mIs+mYO1qxahnXfrUBdXW29/rlGjZugZ59+OOnkHOQMOBVJSckmV0rHo2nzrIgzRKgaCFYB7hQFFUWB04u63HFImjsekPa6zvjn9u8rwbQpb2HGJ+9wVqCB4uVt/+ekKxm1fW+xuowGEWoagB0AeBmQKoZhIH/B15jxxadYv2YljOO48718fym+mTMD38yZAY/Hi5yBp2LUBZehY+duJlRMxyujUSY8Hi8CEZ5drh3cAyOzk6KqzBdu0h3BTmfDvekLq0uJGGcF6i+e3vZ/LXDyDZBJmVaX0SBaVeQNgJRyGwCwAYiQlBIL5s3Cx++/gV1F6m62CgTq8O3cmfh27kz07peLK393Czqc0EVZPh0/IQSaZbVA0Y5tEeU4qnbZqgEAgMBJ10Ar3wrnvrVWl6IMZwV+Kx7f9n8t2PEshNqdZnUZDaZiBkAIsRVgAxCRXUU78OoLT2DNqmWmPmfl0nx8t7wQZ466CJdfczM/DcSA5lmtIm4AxIFdiqqJIs2JugEPIHnWvbZbx3AsPFfA3iv5GyLcpBsCJ19vdRnHxVFVHHGGlHI7wAbguM2bPQ2vvfC3en/fj5RhGJj22cdYsvhb3PPIn9C524lReS4dXvMWrSLOcBy0YQMAQHozUDt4PJLmPAToSq4ljTmJtIMgEd72f04mN0XtoIcBzZ7Dn1YR2YsHwBmA4xYOh/Hq83/F7BmfW/L8fXuLMeH+W3DzXQ/htOFnW1IDAS1bt4k4QzuwU0El1ghndEBdv9vgzX/a6lJM9X/t3Xd4VVXWB+DfPufWNFIogSQQQGoogZBKQBB1xIoFdVTGUb+xjmWkg4hSFCkKgh1ERQUEFSwwKkIoIbkJoXcIkJBCes+t5+zvD4wTQwJJ7r45t+z3eXzUlHUWEO5dZ5+913LnVQFPuduvjwpq1CZMA9W2UzqVViHmChBTuf1xCOF7AFrKYjFjybyZ2GfYo2geNqsV7y2Zh4ryMowb/4iiuXiqruE97I4hVOaAyFZQwTXn3Fu7XQ+h/Dw0J79XOpU24Q6rAp52t/8XhMAU8wLkwOuUzqTVhPILTOKYTCa+AtASks2GRXOnY3/aXqVTAXB58+GalStACMFd9z2sdDoeJ7Rrd/uDUAmkPAvUhV+QzIP+AaEiG6p8x+6DcSauuCrgiXf7DVn63gNbt5FKp2EXseICizBZBw8eLAd4AdAslFKseHue07z517dm5Qr4+wfi+hvHKp2KR/Fr5w//gECUl9k3JU9Vfh4WFy4AQASY4ifC67dJEKrylM6mzdWtCuz4eSN6/bEqMDg6EcQJZhB49N1+A1LwEFgGuv5qqVB2gUWYA3X/wQuAZvh503rs+v2/SqfRKEop3l/6Brp274nuPXsrnY5H6Rre0+4CQCg/xygb5VC1N4yJM+C1bQqItZZ5fD8/P1RWOvf0RNpYX4GRN8MvoO3PmBfl52J/8nYcTt3tUuf2fXz9UF3F/s9Z9gtBbfwkgChflNlLqLD/qDkh5NCf8eyO5uYyT5/AmlXvKZ3GVdmsVrz9xittdiKBu6xreE+7YwilmQwyUZ7sFwZTwmRQB7zI9uvXD0uXLsWYMWOgUjn/PUtdX4HXX3gEH745DQcNu0Bb0RisJSSbDcf3p2LNu2/gw3lTYNi+1SXe/NUaDa6/cSxeX/geAgLZF0tUpYcxYZrrdNy8CiJZIDIoACilfAWgOWRZxgdL34TNalU6lWvKy8nGhi9XYcL//VvpVDxGz1729w8XyzIvH6VTaRlkpCxb8FBYB/wdmiNfMY1rMBjQr18/zJ8/HyUlJdiyZQs2bdqE3FznPkZJm9grwJKrPtsP69Ydo268FTfdOg56L28seG2y3X01rkAEGOMnQm5n/4kdZyCWngFkm91xZFneX/ffvAC4iq0/bMD5zNNKp9FsP36/DqNuuhVh3ezfoc5dG5MWzbINYtlZSB0i7I/lBMz9xkMoPw/VRbb7ZT7//HP06tULY8aMwYQJE/Dwww8jLS0NmzZtwu7duyFJEtPrsfa/EwTfonsf+/+sbRYLPnt7DrLPnmSQXdvQ6fQYccPfcNOt4/5SPH+56j1kGJKZX8888GFIXaKZx1WKWHycRZiS9PT0i3X/wwuAJpjNJmz8erXSabSIZLNh3RefYPKsN5VOxSN0Ce0Kbx9f1Nh55yWWnHKbAgCEwBT7H+irCy6vbjBCKcWcOXMQEhKCvn37QhAExMXFIS4u7s9Vge+//x55ec69EVGWJWSeOGx3HJvN6jJv/vXv9r19fP/yuZTd27Fpw5fMr2kLTYCl773M4ypJKLK/ACCEHPxLTLsjuqlff/4elRX2N1xoa4bkJGRfcI/nys6OEMJk46VYdIJBNs6DihqYEqdD1voxjWs2mzFt2jSUl//172VQUBAmTJiAjRs3Yvny5S6zV8CdqTUaJIwcg9kLlmPpx2sx7v4JV7z5n888jeWL5jA/nSAH9IAx9kWAEKZxFUVliMWn7A9T7/k/wAuARlFKsXXzBqXTaBVKKbb+sFHpNDxGrz797Y4hlpxw6RG7jZG9OsDkgHarly5dwtSpU2FtZF+OIAiIjo7G/PnzsXnzZjz33HPo0qUL0+tzVxfWrTsmPPEcVq39GRNnzsegIY0vwZeXlWLB7Ml2T9RsiGp9YRw+DVDpmMZVmlh58fIIcTs1LAB4mdyIE0cPouAS+6XEgKD26NNvIALbd4DVYkFxUQFOHDnIfPd+8s5teOKZl6FSO67DXFlpMY4fOYjiogJQShEU1AF9IgahY6fODrumM+obMRjAGrtiEHMVhLJzLt2hrDFS+/4wRT4O3f6PmcY9dOgQ3n33XUycOLHJr6lbFXj44YeRkZGBTZs2YefOnbDZ7N9Exf2VWqNBdNwI3HTruCbf8OuTbDYsmT8TxUVM5tr/j6CCMWEaZO9ObOM6AZHB8j8AEEJ21f9/XgA0Yk/Sb0zj9YsYjIceexr9BkSCNFiWsljMSN65Deu/+ARFhfZPeQKAmuoqZKTvRWzC9Uzi1Zd1/iy+/PR9HNyXCrmRo00Rg4bi4ceeQZ/+A5lf2xn1GzAYgiA0+nvREqqCQ67dEKgJ1l63QSy/APW5X5nG3bBhA3r27Ilx48Zd9evqVgWio6Ndaq+AK7jas/2rWfn+Ehw/cuDaX9hC5qH/B6mjew5JE/P3X/uLru2MwWD4ywASMTQ09DV7o979wD+g0bj+MaY6n374DpOGFIIg4KF/Po1nX56Jjp06X/HmDwCiqEL3nr0xZuyduHjhHPJysu2+LnC5U93QmAQmseps2bwBi+ZMQ15OdpPP7YoK8rH9159AKRAxaEijv2Z3otFokbJ7OyrKy+yKQwCXnE3eHLbOQ6EqPgahpohp3NTUVAwZMgSdOzdv1cnLywuDBw/G+PHjERkZCYvFgosXL9pdvHkStUaDuOGj8PgzL+PRJ19A34jBLXrt/+Wn7/DNl6uY52UNvwFmN+j01yjZBl3GhyD2HwH8Njc396f6H+B7ABooLirApTw2U9oeffIF3PPgo816E9TrvTBl9lvM3rSPHmLbm33L5g1Y9f6SZh23opTimy9XYv2aT5jm4KwiBg2xO4ZQdBxEsjDIxgkJKhjjp4B6sW30YrPZMHPmTBQUtGwpuf5egU2bNvG9As1Q92x/5dc/XfXZ/tWcPHYYn374DvPcpKC+MEc/xzyusxCLjoHY7H9MTClNavgxXgA0cO6s/TstASB2+CjcfveDLfoeQRDwn2lz4M+gI1buxSxmG2yyL2Tis4+Xtfj7Nn69GscOM1m6cmr9B9pfABDZCrHwCINsnBPV+cM44hXmDY9KS0sxefJkmEyt+1lv3749P0HQhMZ28vv4tu5kR1HhJSycM5V5UzVZFwhT4lRQxptNnYnqEpvHJZIkJTX8GC8AGsi9aH+rRUEQ8Mjjz7bqe728fTD+ocftzkGWZeTnXrz2FzbDV59+AKkVm6copfhi5QomOTizwUNjIDAY/qLKTWOQjfOS/HvANKx1fy+u5vTp01iwYIFdMfiqwP+wuNuvz2IxY9Hc6XY/JmuICmoYE2dA1gUyjetsVHn7WIQ5mZGRkd/wg7wAaKAg3/72on36DUSX0Na3nxwx+maIDO5CWPxaLuXlYH9667u6nT11HGdPsdnB6qy8fXzRg0FbYFVeGuDmE9us3UbB0ufqG/da47///S++/vprJrE8cVWA5d1+fZRSvP/2fGSeZt/rwhTzPOSgXszjOhNSWwKh0v4bOUrpjsY+7t4/1a1QW2P/AI1BQ+2rmL19fHFd7344ddy+JeFqBr3Bv/lqld2bpH7atB4vTX3d7lycWWRUrN2FDjGWXm4LHOjeL2rmwY9CqLwIVT7bfSorVqxAeHg4EhLY7KOpf4KguLgYW7dudbsTBKFdwzH6pttw49i7mLzhN/T9+i+wewfbEyAAYOl7D2zd2J9ycjbq3BRWoRotAPgKQANGo/3jTIM62H8OtT2DGCY7fy35uRexh8Ff3uSk31xqpkJrRA6LYxJHlWtgEsepEQGm+ImQfdkuscuyjNmzZ+PiRTaPvupzp1WB+nf7yz5Zx+xuv6GDGQas/fwj5nGl4CGwDJrAPK4zUmXvYRFG1mq1SY19ghcADbBoS6kS7X9hYNHEx95fy9effchkyIosy1j3BdtmMM6md98BLToL3RRVDtshOs6Kqr1hHPEKqNqbadyqqipMmjQJ1dWOGYXrynsFQruGM322fzV5Odl4+41XmB+xlH1DUBs/ySFjp50NqS2GWMJk3sPe3bt3N3oG1/1/F1tIr/eyO0ZVVYXdMVhsmPHybv0M7AxDMvbu+t3uHOrsS93DvMGSMxFFkckRTqEyl+kQHWcm+4bAFPcSwPjFPCsrC6+//rrDz/c3tiogiqJDr9lSbXW3X5/RWIuFc6baPSSrIarSX27zq2n965orUV/cw2RPEKX0u6Y+55prWA7k5WX/HUlxof0tLkuL7W+a0tpfS011FT5cZt+u6sZ8vHwh+g+MRGBQB+axnUFM/Ejs3v6L3XFUWbsgBfRkkJHzs3WJgTniQWiPstnAV2f37t1YuXIlnnzySaZxG9PYXoHvvvsO+flXbLpuM45+tt8UWZaxdMGruJh1nm1gIsAYPxFyu9ZvrnY16otMlv9BKd3c1Of4CkADOgYrAPbueDWZjMjJtv8vkL6VBcDqD5eitIRt1zbgcmHx3pJ5zKd/OYuhMQlQazR2x1Fl7QJxs+FAV2Ppfz+sYcOZx129ejV+/53dKlZz1K0KfPvtt22+KqDE3X5DX3/2Ifalsnnjqs884CFIXRz3yMLZCDUFEErP2h2HUnogPT39XFOf5ysADXQKtv95XuaZkzCbTdBqWzeR6uSxw0yWL1uzkfDnTeux47ef7b52Uw5mGLB+zSd48B+OvzNrazqdHoOHxtj9AiiYSiEUHXfbvuZXIATm2JcgVOdDLGvytarFKKWYM2cOQkND0adPH2Zxm6MtVwWUuttvKHXPDmz6xr7BWI2xhcbD0u8+5nGdmSprF5Plf0LIpqt9nq8ANBDarbvdMcxmE9JTdrf6+5MZPCvXanXoHBLWou/Zn7YXn33U8o5/LbXx69VI2rbF4ddRQgyjAUyaC21756o0KmpgGj4NVGv/Rsr6zGYzpk+fjooK+/fltFb9VYHFixcjPj7e7piCIGDM3+7AgmWrFLvbr+985mm8u/B15qt7ckAPGGNfAtx8pshfUAr1uW1MQgmC8P1VP8/kKm6ka7ceTOLs+PWna39RI2prqpG6p9Ejmy0SFt6jRd3pzpw8hnfenNUmg1HqmoMk72TzQ+5M4oaPYnKCQ8zeA1gcs5PdWcnenWAcPh1g3NY1Ly8PU6dOhZVxG9qWEgQBiYmJmDRpkt2x9F7eePblmejVN4JBZvapqqzAornTmbUer0O1vqhNmAqoWreS6qpUhYch1DCZDHs2JSXlqs1keAHQgH9gENr5B9gd52CGoVWNfH78bh1qa2vsvn549+aPlj1+5ABen/Y8k+s2lyRJWPbWbCab5pyJt48voqLtPw1AJAs0F1u/iuSqpA4RMEc+xjzuwYMHsXz5cuZxPZ1ks2HR3OlMuo7+haCCMWEqqE8w27guQJXJpnESpfTba32NxxQApSVFyDx9AtkXMq95PGVwVCyTa65ZuaJFd9SlJUX46ft1TK49YHBUs77uQHoK5s54iUkDpJaSJAnLFr6GjV+vdquNgYmjb2YSR3WWfQc1V2DpdTusPdj8Htb3zTffYPPmJjdEc62w6oO3HTLwyzzk/yB1HMg8rrMj5kqoclOZxGpOAeDWmwArK8qxeeNX2LtzGwoL/rf5RhAE9OobgZtvuxsjb7jliqXyodEJ2PX7f+2+/oljh/Djd2tx130PX/NrKaVYsXguk1bEokp1zTPpsizju3WfY/2aTxSdh04pxdrPP0JO9nk8+fwUu3oXOIthcYnQ673sLqrE8nMQSs9CDmz+ao67MEU9BaEqB2IR2zkSixYtQrdu3RAZGck0rifa8dvP+OWnJo+Yt5o1/AZYrhvLPK4rUGftAJFbPnitIULI0fT09PRrfZ3brgAYkpPw3D/vxaZv1vzlzR+4/OZ36vgRLF80B1Off+yKz0dGxTKZ7gZcPhZz9NC1e56vX/MJDu1nMw0uYuCQq3alqygvw/xX/oO1n3+k6Jt/fbt3/IqJz0zAyWOHlU7FbhqNFnGJo5nE0p513IkMpyaoYEyYAupl/2js+mw2G2bOnInCwkKmcT3NqeNHHNIrRArqC3P0c8zjugRKoT7L5pEopXRVc77OLQuA7b/+hMXzZjTrmfa5s6cw5d///MvGO1+/dhg0NIZJLjarFW+9NgWZZ5pu6bhl8wZs+OpTJtcDgNjhoxr9uCzL+G3LJrz05N9xMMP5es4XFuRj1qSn8fHyhaisKFc6Hbvc8LfbmcRRZe0CMbEdo+oqqC4AxsRXAJWWadySkhJMnjwZZrOZaVxPUVZajEVzp8PGeFOlrAuEKXEqKONNoK5CzN8HoYrJXgqLRqP5qjlf6HYFwJmTx/DRu2+16M62bhfrisVz/ywaxt7J7txpbW0NXp30DPYZ/no+XJZlfPnp+1j1/hJm1/Ly8sbIMbdc8fETxw5h2guP48NlC5z6zVWWZfzy03f49+Pj8fOm9bBYXPNFuv/AIQjtGm5/INkGTaZ7bZRsCSmgB0zDnmUe99SpU1iwgP0drLuzWixY8NoUlJUWM41LBTWMiTMg6wKZxnUl2lNXPbLfEt831fu/IbcrAD77eFmrK9Mdv/2MF//vQfy8aT0GDI5i0hSojslkxFuvTcFnHy2D2WxCYUE+5s18Cd+v/4LZNQDgplvH/dkCWJZlpO7ZgZkvP4lXXn7qqqsQzqamugqffvAOnp4wDhu++hRVlcqd426tUTfdxiSO+swWEFnZI2xKsnYbBWufu5jH3bp1K9auXcs8rjv7ePlCu8deN8Y87BnIQe49BvtqxLJMiIVHWYVr1vI/AJDY2Fi7t19/8e1vTCah2evc2VOY/NyjTGL5BwSinX8gss7b346xoQ4dg1FVWQGTycg0rqhS4f3PvkV5aQkMe3ciOek3FFxyj9nlWq0OMcOvR+KomxA5NJbJWXtHKy8rxZOP3AnJZv+mHlP087D2uJFBVq6JUBm63XOhyme741wQBCxZsoRJc57mys3Nxb333mtXDG8fX3zxbdsO1/r+mzX4ctV7zONa+t4N8+B/Mo/rSnQpi6HOZnLsN8tgMPQA0KwlcLd62LI/jd0o1fKyUpSXlTKLV19RIZMmD1fQ6fSY8dK/UFLsfhuczGYTdm//Bbu3/wJvH18Mi0tExKCh6Nt/EELCuimdXqP8AwIREz8SKbu32x1Lc/I72Lrf4BFjUBtDiQBT/CR4/ToRQjW7drqyLOPVV1/F6tWrERoayiyuuzm0Pw1fr/6AeVxbp0hYBv2DeVxXItQUQn2RzXsXpXQ1mvnmD7hZAXApL0fpFBRVU13FfATntfS4rg/8A4OYFl/XUlNdhZ3btmLntq0ALr/R9uoTgS6hXdGpcwiCu4QiuHMIfHz94OXtA6JgG9Fbx93PpAAQqnKhupgMa9cRDLJyTVTtDePIWfD6bTKIlV3TqqqqKkycOBGrVq2Cj4/rH0NlLS8nG0vmz2R+Ykj27gRT/CSPLWrrqE9tBqjEIpQsSdLqlnyDWxUArJfUuasL7RqOWW8sg06vx9wZL+H4kQOK5FFeVor01KaXz9QaDTQaLXx8/eDr1w4dO3VGVOxwxCWOhk6nd2hu/QdEonvP3jifedruWJoTG2ENS/SsvugNyL4hMMW+CH3yAoDhxMSsrCzMmTMHCxYsYHYE2B0YjbVYOGca8xsLqtLDOOIV5rMfXI1gLIGa3SbfnzIyMrJbdH1WV3YGLFr4cs3TOSQMsxcsh187f2g0Wkyfsxi9+znn9DqrxYKa6ioU5Ofi7Knj2LvrdyxfNAfP/fNebG/lzIaWGHvXeCZxhPILUOVfs7eH27OFxMLc/37mcXft2oVPP2V3HNfVybKMpW++iotZ7CY0AgCIAFP8RMjturKN64LUxzYw2+BLCFnY0u9xqwLAGQZjeIKu4T0xd9EHCAzq8OfHvLy88eqb7yJi0FAFM2uZ8rJSvLdkHla+t9ihrYivv+EWZsWp9shXTO98XZUl4kFYw4YzLN9kZQAAH1RJREFUj7tq1Sr8/rtnTWJsyrovPr7i6DILloEPwdYlmnlcV0NqiqA+z2wjZ1pqampyS7/JrQqAodEJ0GjYNg3h/uq6Pv0xZ9H7CAhqf8Xn9HovvDL/HQyLS1Qgs9bb+sNGfLfuc4fFV6nVuOUO+3Z91xHKL0Cd03b7LZwWITDHvACpHdsNoJRSzJs3D5mZmUzjuhpDcpJD/k7YQuNh7suux4or0x5fz6TtLwBQSlvV1MKtCgC/dv742+33KJ2G20oYOQZzF38AX792TX6NRqPF1NkLces49ku0jrT+y5XIy2nR47MWufWu+5ntN9Ac+Qpg9MLhyqhKB9OIVyBr/ZjGNRqNmDRpEsrLnbdhliNdOHcG7y58nfmqmOzfHcbYlzx6D0sdoTof6vP2bw7+w+m0tLRWTblyqwIAAB589EmEdeuhdBpuRRAE3P/IE3h5xrxmrbAIgoAnnnkZTz4/xSXO6wOXx5o6chXAx9cPN45l08xGqMqD+jxfpgYA2bsjTPGTACIyjZufn49Zs2ZBkpjsznYZVZUVWDhnGvMN1VTri9rh0wCVjmlcV6U9upbVzn9QSt9GC47+1ed2BYBOp8eMuUsQ3sNzu0qx5NfOHzPnvo0HJvyrxcfp/nb7PZi/5CN07NTZQdmxlZayy6Ev+Hfc+3dmBZHm2HrA5pptklmTOg2GOfIx5nHT09OxfPly5nGdlSRJWDxvBgrymfSj/x8iwpgwFdQnmG1cFyUWn4QqexercAVeXl6tvnNxuwIAADp26ow3ln7SaE98rvkGDYnG4ve/QOSwuFbHuK5Pfyx+/wskjrqJYWaOUVNdhUIHdk5s36ETRo7+G5NYgrEE2lPfM4nlDiy974ClB/ufsXXr1uGHH35gHtcZrf7wnWZNLm0p05AnIHUcyDyuS6IU2gMrAUaPVwghK5KSkkyt/X63LACAy61jX5zyGp54dqLLLEM7C73eC08+PwWvvvkugtp3tDuet48v/jN9LibPetPpj2qWlzum+2Od+x56DKKKTfsN9YlvQWqaNfPDI5ijnobUoT/zuIsWLcLRo8z6tDulHb/9jK0/bGQe19b9Blh7sZmJ4Q7UWTsglp5hFa6SEPK+PQHctgCoc+td47H4vc/Rpz+vQJtjWFwi3vn4a/zt9nuYd9CLSxyN5au+wa3j7nfaZive3o7tBNepcwhG3Xgrk1hEskB76DMmsdyCoIIxYQqoVxDTsFarFVOnTkVRkXsWW6eOH8GHy9hPRpTa94Vp2HPM47oqYjNBc2gNy5CLU1JS7Lpjcc5XYcbCuvXAvCUf4f+enQi93kvpdJxSj+v64LW3VmD664vRoaPjntV5+/jiiWdexlvLV2PA4CiHXac1RJUKHdpgv8L4hx9ntiqlzkmGWHSMSSx3QHUBMCa+AipqmMYtKSnB5MmTYTa7176LspJiLJ43o9UTVJtC9YEwJUwBFdyq2axdNCc2QjAxW2Es1Ov179gbxCMKAODyzvSxd43HspXrMOaWO5ktw7q6sG7dMemVN7BwxWcYGDmsza7b47o+eH3he5i9YLnTNHDqPyCyTQrEDh2DceMtd7IJRim0GR/xY4H1SAE9YB72LPO4J0+exIIF7O+UlWK1WLDg9SkoLWG7skEFNYyJMyDr2a7EuDKhKhfqk5uYxSOEzEtKSqq2N47HFAB1gtp3xLP/mYH3Vm/ETbeOc9qlaEfr2asvnp/8Kt7+8CvEj7hBsYE5g4ZEY8GyVZj39kdIGDlG0T+P2+5+oM2udd9Dj0GrZXMkSqzIguYUuxcXd2ANHw1Lb0ZFVj1bt27F+vXrmcdVwicrFuHsqePM45qjnoYUyE9h/YlS6Pa9x6zlL4DzVVVVH7EI5LG3wR06BuPpF6fhznsfwq8/f4+kbVtQVVmhdFoO5e3jixGjb8aYW+5Ej+v6KJ3OX/SLGIx+EYORl5ON7b/8iB3btqC8tKTNrh85LA7RcW03aS8gsD3uvO8hbPiKTe95zbH1sHVNhOzNj1rVsUQ+BqEqB6r8/UzjLlu2DN26dUNcXOtPxyjth2+/xu+//Mg8rqXv3bD2uJF5XFemPvcLxEJ2j+kIIbOOHTtmYRIrNjbW7vMIX3z7G7x9XHuqk9ViQeqeHfj9lx9x/MgBt2kAotd7YVhcIuISR2NojOu0SpZsNhw+kI7UPTtg2LvTocVZaNdwzH/7Y/j4su0ody0mkxH/fnw8ykqKmcSTOg5E7ai5vNNaPcRSDa/fJkGozmca18/PD59++ilCQ0Nb/L25ubm49177WkN7+/jii29b10f+8IF0zJv5EvPXOFunSBivf5V5UyZXRoyl8N76b5bjq48YDIZItLLxT0O8AGhETXUVDmYYkJGWjAPpKaisYNsSVKfTw2IxM5+vDVzeyNbjuj4YGDkMg4ZEo1/EYJc/BilJEs6cPIbDB9Jx5OA+nD11HBYLm81Yw+IS8cLk2Yr9/G7buhkfLH2TWTxT7Iuwht/ALJ47ECpz4LVtMoi1lmnc8PBwrFq1Ct7e3i36PiULgIJLeZj2wuPMX9Nk706ovWkxKOO2zK5On7wAqpwUliFvMxgMW1gF4wVAMxTk5+Lc2VM4n3kamWdOorjwEkpLilFbc+09GGqNBh06BqNb9+vQvWdv9B80BL37RMBsNuHo4f04dfwILmSeRk72BZSWFDW7KNBotAgIao/OIWHoEhKGkLBw9OzVF9179nb5N/xrkSQJ2RcykXn6BHKyLyAvNxuX8nJQUlTYrBamGo0Wg4fG4JY77rWryRELsixj4jMTkH2BzfAZqvZGzS3vgnpdOazJk6lyDdAnL2A+SfH666/HggULWrSHRqkCwGQyYvqL/8fsZ60OVelRO+YtyP5sBzO5OlXOXuiT32IZMslgMIxmGZAXAHawWMwoKylGdXXVFZ/z8fGFTu/VosY3kiShorwUJqMRRuPlu5WaP2Lr9V4QRBHe3j7w8w+Al1fL7jo8hclkREV5GaqrKkFlGbW1l5fevL19AELQzj8AAQFBTnUK5PiRA3h18rPMhq9InQaj9vrX+aOABrTH1kFzdC3zuP/617/wxBNPNPvrlSgAKKVYMn8mUnYzG0BzGSEwxk+BLSyBbVwXR0zl8P7lRRATs5UWG6V0WFpa2iFWAQEP3gTIgkajRafOIejEKJ4oiggM6sAommfS6fTQBevRKbiL0qk0W/+BQ5AwcgySd25jEk8sOAT12a2w9mLTcMhdmPs/AKEiG6qLLR6bflUrV65EeHg4xowZwzQuS+vXfML+zR+AOeLv/M2/IUqhS3uX5Zs/ALzD+s0f8MBjgBznjP751ItMexDoDn8OoZLxUBdXRwhMMS9Aasd2qZpSinnz5iEzk+3SOiuGvTux8evVzOPaQuNh6e9aY7/bgvr0D1DlM52pcFGv189hGbAOLwA4zgkEBnXAfQ8/zi6gzQTd3rdAJCanhdwGVelgGvEK881qRqMRkyZNQnk528119srJvoAVi+Ywe7xUR/YPhzH2Jf6YqQGhPAvaw0zb/YJS+iKLpj+N4QUAxzmJO+5+EF3DezKLJ1ZkQXuI/Z2fq5O9O8IYP4n5cbX8/HzMmjXLaY4QV1dV4o1XJ/65D4YVqvGBMXE6oGLTyMpdEMkCfcoilg1/AODntLQ0h4395AUAxzkJUaXCs/+ZwbQbovrMFtbHkNyC1GkwTIMfZR43PT0dK1asYB63pWRZxjsLXkVBPuPHQESEMWEqbzjVCO3+jyBUXmQZ0kgpfZ5lwIZ4AcBxTqRX3wjcfveDTGPq0pZDqClgGtMdWPvcBWuPm5jHXbt2LX744QfmcVti9UdLcXBfKvO45iFPQOo0iHlcV6fO/AXqc2w28dYhhMxPS0s7zzRoA7wA4Dgn8+CjTyK4S8s7zDWFWGug3/MmYHOvSXYsmKOeghTUm3ncxYsX4/hx9n32myNp2xZs2fQN87jW8Btg6XUb87iuTiw9A+3+j1mHPVZVVbWIddCGeAHAcU5Gq9XhuZdnMh3QJJSfh36f8kvTzsZRk+ssFgumTJmCoiK2k/au5fSJo0w7S9aR2veFOfo55nFdHTFXQbd3IQjbaZwWWZYfYdXv/2p4AcBxTqj/wCG49S62R6xUWbugOb2ZaUx3QHUBMA2fynx2fXFxMWbMmAGrlemmsCaVl5Zg0dzpsDG+HtUHwpQwhfnvj6sjVIY+dQmEmkKmcSmls9LT0w8yDdoEXgBwnJOa8MRzCOvWg2lM7cHPoSpok9cWlyIF9YE5+t/M4x45cgRvvsn+jrwhq8WCBa9PQWkJ2xUHR62QuAPNwU8hXjrAOuyutLS0xayDNoUXABznpNQaDSbOnAe1RsMuKJWgS34LYkUWu5huwho+GpZetzOPu2XLFmzYsIF53PpWvrcYZ06yGzlbxxz1FKTAXszjujp15n+hOc18nHIFIeRRMJr01xy8AOA4JxbWrQcemPAvpjGJtRa63fNYtyp1C5YhT8AWPJR53KVLl2Lfvn3M4wLAj9+txbb/sj91YOntmFMSrk6Vtw/ajI8cEfr51NTUC44I3BReAHCck7vrvocxaEg005hCTSH0u+fxToENUCLAFD+R+Tl3SZIwY8YM5OayPZd/+EA61qxkv7nT1mkwzJHs+yS4OqHkDPQpC0EYT5UEsNFgMLBtIdgMvADgOCcnCAJenPo6AoLYjvgVS89Al7IYoM7Ruc5ZUI0PjCNngarZzWYAgMrKSkydOhUmk4lJvMKCfLzzJvvOg7J3R5gc0CnR1Qk1hfDaM88Rx2nzKKVPsw7aHGJoaOhr9ga5+4F/QKPRMkiH47jG6PR69OzVFzt/38q0r7tQlQuhpgi2kFje170eqvWD7NsF6py9TOOWlpbizJkzKCy0b+e4KIg4kJ6CwoJ8RpldRlV6GEfNBfVhNePUPRBzBbySZkGoYX6s00opvTMtLe0k68DNwVcAOM5FRAwaynw/AACoL2yH7sAnzOO6OltoAiz9H2Ae98iRI3bHMJmMyL7AePogITDFPA/Zn+20RFdHrDXQ73zNIdM1CSET09LSdjMP3EwCALvXj6wW/hyR49rCPQ8+iiHR8czjqs/8DM2JjczjujpzxIOwhQ1XOo024Um/1uYiNiP0O1+DWHbOEeG/TE1NXe6IwM0lALB7zGBZWQmDVDiOuxZBEPCfaXPQOSSMeWzt4TXQnPiWeVyXRghMMS9Abufed8W20DiHrHa4MiJZoN89D2LJaUeEP2Sz2Z5yROCWEABU2Rvk7Cllel5znCfy9vHF1NkL4eXlzTy29vAX0JxWdpCNs6EqHYwjXgHV+imdikPIfqEwxbzI94DUJ9ugS34TYuFRR0QvpZTenZGRUeuI4C0hhoaGjgdg1+2E1WrB9TeOZZQSx3HX0s4/AGHhPbB31+9MNwUCuNwpUOPjkCE5ropqvCEH9IQ6axcAtr/fSqIaHxhvmA+qC1A6FadBJAv0yW9Alb/fEeElSum9aWlpjmkK0UJiaGhoIoBIe4IU5Odi8NAYtO/Id45yXFsJCe0GQRBw9FAG89iqSwcAtRekoD7MY7sq2ScYUOsu/964AUoEmBKn8U5/9RCbEfrdc6EqOOSQ+JTSWWlpaZ85JHgriKGhob0A3GxvoFPHD+P6MWPZti3lOO6q+g2IROGlfFw4d4Z5bNWlAyCEQOo4gHlsVyUF9YVgLHbUprA2ZRnyBKzdRimdhtO4vNt/NsTiE466xJdpaWkTHRW8NcQuXbpYCSF2ny2qqqzAqeNHEBM/Ehot7wnAcW2BEIKomAScOn4EhZfymMcXC4+CWKohBQ/lz4j/IHUeCvHSAQjGUqVTaTVr+GiYB/NOf3WIuQJeO2ZBLGN8tPJ/fquurn6wqKjIqbpuicOHDy+oqKh4AYDO3mBFhZeQsns7gjuHoktoVwbpcRx3LYIoIjp+BPYZklFZUcY8vlh6GmJtIWxdogHCW4eAiLB1GQZV9h4Qm1HpbFpMCuoDU+J0/mf5B6Gm8HKTn4psh8SnlB5Qq9VjMzIynO6HhQBAXFzcZ5RSpuVg9569EZMwEuE9e8PfPxCiis+S5jhHKi68hKULZsNiYd6qFABgCx4K0/ApoCq9Q+K7GrH4JPQ7ZoLINqVTaTaqC0DtzUv4eN8/CCVn4LXHoYOxzsuynJCenn7JURewBwGA6OjoMYIgbFM6GY7jnJvUrhuMI18F9WI7l8BVqS9sh86wTOk0moUKahhveIOf7viDKicVesPbjujtX6dEEITElJQURdr8NocIAHl5eVmhoaF/B8DLQo7jmiSYK6DOSYat02BQnb/S6ShO9u8OYqmCWMp+EyZr5mHPwhYSo3QaTkFz5ido05c7cvWmllI61mAwHHTUBVioG/dEQ0NDawDcpWQyHMc5P2I1Qp21E7JfKGS/UKXTUZwUHAlV8QkINQVKp9Ika5+7YOl3n9JpKI5QGdoDK6E9tg7Ecf0cbISQ+w0Gw++OugArf857DA4OPkYIeYgQEqhkQhzHOT8i26DOSQYBIHWI8OwTAkSArUsMVBf3gljt7qzOnNRpMIyxL3r8pj/BXAn9nvlQZzt09o6NEPJIamrqd468CCt/FgD5+flySEjIKULII0omxHGc6xALj0IsOwupyzBA9OAeIKIGUseB0GQlAU60KVD27gjj9a8DHr5xUyw7B33SLEf3b5AIIf9MTU1d68iLsCTW/5/c3NzMsLCwCAARCuXDcZyLEaryoMo1QOowwKP3BVCdP2S/UKhzkpVOBcDlGQam0XMhe3t2h1Z15i/QJS+AYLF77M3V2AghD6empq5z5EVYExt+IDw8fJssyw8A8Ny/yRzHtQgxV0KTtR1UFwA5oIfS6ShG9gsDZAmqomPKJkIITHEvQ+o4UNk8FEQkC3QZ70N7bD0IlR15qbo3/28ceRFHuKIAyM7ONnXt2jWFUvoIALUCOXEc54pkCaq8NAg1BbAFRwKCZ/b+kDoOhFiZDaHyomI5WAb8HdbrblXs+koTys/Da+drUF1y+CZ8l33zBxopAAAgJycnNyws7AiA8bg8MpjjOK5ZxPILUOemQArsDerlgSeLCYHUOQqqvHQQc0WbX94WEgtT1FOeuTGTUqhP/wB9yiIIjmvuU8dGKX3IYDBscPSFHKXRAgAAcnJyToWGhp4HcCd4EcBxXAsQcxU0538HQCF16Od5O9AFNaTOQ6HO2gkiOazRzBVkv1AYR77qkRsyibEU+uS3oMnc6uglfwAwUkofTEtLc4nd/k1psgAAgNzc3MMhISEHCCHjwB8HcBzXIhSqwqNQXToAqUMEqNZP6YTaFNX4QAroefnYmePfkEB1ATCOngeqC3D4tZyNKmcvvHbPhViR1RaXKxEEYazBYPitLS7mSFctAAAgNzf3dJcuXTYTQkYB6OD4lDiOcyeCsQTqc7+BUBlS+74etRpAfYJB/UKgyjEAjms8A6r2Ru3oOR7XmImYyqBPWw7t0bVttdJyXhCEMSkpKQfa4mKOds0CAADy8vKKwsPD18iy3AlAJP6YIcBxHNcchEoQC49Clb8PclBvj7pLldt1hdy+D1Q5Boe0npX1QTCOmgPZvzvz2E6LUqjP/Qr9njccOcK3oQwAN6SmprbJMkNbaPEbeWxsbCKl9F1CyBBHJMRxnJsjIix974K5/wOAyu4p5C5DqLwIXcrbEMvZNaOxBQ+FKeZ5UL3nNHAVqnKh2/cexMI2PWq5Va/X35+UlOR8rR7t0No7eRIXF3cHpXQ6gDiWCXEc5xmoVxDMkY/DGpaodCpthsg2qE//CM3xDSDWmlbHoT7BMA+a4Fm/dzYTNCc2Qn1yE4hsbbvrErJKp9M9nZSU5DwtHhmxeyk/Ojo6QhTFf1BK7wTQl0FOHMd5EKnjQJiG/AuyfzelU2kzxFoD1blt0Jz7FUJlTjO/SYDUvi+sPW+BNWy45/RZoBTqrB3QHFoDwVTalleWCCEzU1NT32rLi7Ylps/yhw8f3kWSpBGU0v4A+gDoDMAHvKsgx7maUABtd5aMiLD0uBmWAQ96XDthoSoPqsJDEMouQKjOA8zVIDYjqNoLVNcO1C8Mkn932DoPBdW2UzrdNiWWnIJ2/ydKjFsuJoT8PTU1dVtbX7gt8c18HMddIT4+PkaW5W8AtOltOVXpYO17Nyx9xoF60P4A7q+E6nxoj66FKnsXQB13eqIJ+2w2270ZGRnZbX3htsYLAI7jGhUfHx8oSdJnhJA72vraVOcPc//7Yev5N1BPWermINQWQXNsPdTntwNUavPrU0pXenl5PZ+UlGRq84srgBcAHMddDYmNjX0BwCIo0AyMatvB0nccrL1uB/XA7naegpgroDm5CerTP7bpBr86lFIzIeQFg8HwcZtfXEG8AOA47ppiY2MTAawDEKLE9WVdIKz974Wl+02ASqtECpwDCDWFUJ/aDHXmL4q88QMAISRbluV709LS9imSgIJ4AcBxXLNERUW1F0VxDSHkFqVyoGpvWMNHw9rvHsh6Dxw05CaEsnPQnP4B6qxdiiz11yGEbCCEPJ2SktKmxwucBS8AOI5rCSEmJmYaIWQ22vKUQANUUMMWPhqWPndC9gtTKg2uJSiFKj8DmlObIBYeUTqbUkLIM646xpcVXgBwHNdisbGxgwCsBjBU6VykjgNgvW4srCFxnnM23oUQcyVUF3ZAk/kLhKpcpdMBgF9UKtXjycnJeUonojReAHAc1ypRUVFqlUo1DcArUHA1oA7VBcDS/UbYet4I2TtY6XQ8G6UQCw9DnfkrVLmpDpmB0Aq1ACYbDIYP4MjJTC6EFwAcx9nFmVYDAACEQArqB2v30bCGJgAaH6Uz8hhCTQFUWbugPrcNQs0lpdOpL41SOiEtLe200ok4E14AcBxnN2dbDahDBTVsITGwhSXC1jmKnyBwAFJbDHVOMlRZu5Xo2HctVZTS2V5eXsvdsZe/vXgBwHEcM3+sBnwCIEbpXK6g0sIWHAVbWAJsXYaBqvRKZ+SySE0R1HlpUGXvhlhyUolufddEKf1GFMWXU1JSnGLjgTPiBQDHcayRmJiYCYSQtwA45cN4SgTIQX1gC4mB1GkwJP8eAOEvh02iEsSSU1DlpkMsOHR5pLETvukDAKU0UxTFf6ekpPxX6VycHf+J5zjOIWJjY/0AzALwApzosUBjqHcH2DpFQuoQAVvHgaBe7ZVOSVlUhlBxEari4xDz90MsPAxic/ruuEYAbwYGBi7cunWrWelkXAEvADiOc6iYmJjehJB3ANyqdC7NRX2CYesQAal9P0iBvUDbdQUlgtJpOQyRLBBKzkAsPg6x+ARUJacAS7XSabXEz7Isv5Cenn5O6URcCS8AOI5rEzExMbcRQt4G0FvpXFpMpYPk3wNyUC9I/uGQ24VD9gt1yfkEgrkSpPw8hPILECuy/vw3nOOoXkulEkKmp6amJimdiCviBQDHcW0mIiJC4+vr+zSldBqAzkrnYw9KBFDvTpD9wyH7dIbsEwzq0wmyTzBkfXtFmxIRSzWEmkKQmksQqgsg1BaCVOZBrMgCMZUplhdDxwDMNBgMm5VOxJXxAoDjuDYXHx+vl2X5KQBT4aQbBe1BiQCqCwD0AaC6AMg6f1B9IKjGF1TtBarWA2pvyGpvQKUHFcTL3yioAPUfpxMkK/DHc3fBWguAApIFRDKDmKsAcxWIuQLEUgXBUg1irgSMpRBqi0GsNcr8wh3vAqV0dlpa2pcAZKWTcXW8AOA4TjFjx47VlpaWPgrgNbj4igDnUMWEkMU6nW5ZUlKS0+9GdBW8AOA4TnGDBg3y1ul0zxFCJgPw8C34XD3nCSFLa2trVx0+fNhtlzWUwgsAjuOcxqhRo3yMRuPTAP4NoJvS+XCKySCELNLpdN/yDn6OwwsAjuOckRAXF3cbpfQFAGPAX6s8RTIh5K3U1NQflU7EE/C/VBzHObX4+Pghsiw/Tyl9iBDCm/m7GUqpmRCyVpKkJfv27TuqdD6ehBcAHMe5hBEjRnSwWq2PU0qfAxCmdD6c3U4QQj4XBGH13r17C5VOxhPxAoDjOJcyfvx48eLFi6Mppf8AcA8Ab6Vz4pqtEsA6AGsMBsMepZPxdLwA4DjOZcXGxvpRSscJgjCeUjoWgKh0TlyjMgB8bDQav+K7+Z0HLwA4jnMLUVFRXUVRfIQQ8giAfkrn4+EogDRCyPeSJG3gPfqdEy8AOI5zO9HR0ZGiKN5OKb0dQDQA953k4zxsAJIAfC8IwuaUlJRchfPhroEXABzHubWoqKj2oiiOJoTcAeBOAO2UzsmNmAgh2yilPwLYbDAYCpROiGs+XgBwHOcx/mg9PJJSegchZAwuPyrgr4PNZwGQBiCJELLTarXuzcjIqFU6Ka51+A8+x3EeKzY21o8QEgMgkVI6HEAiAJ3CaTkTG4BDlNJtgiAkU0p3GgyGSqWT4tjgBQDHcdwf4uPj9TabLVoUxRF/FARDAXRSOq82IgE4A+AgIeSgJEn7ZFlO4Xf47osXABzHcVcRGRnpr9VqBwDoDyACQH9K6WBCSAeFU7OHFZff7DPq/jEajQf4ET3PwgsAjuO4VkhISOgmy3J/SmkPAKF//NPtj3+HANAomJ4NwEUAF+r+oZReAHCeUnohPT09F4CsWHacU+AFAMdxHHskKioqWBCEUEJIiCAIHQD4Ukp9APgC8MPl0wi+AHzQ/G6GlQDKCCFllNIySmmZIAh//rcoimWU0kKdTpfDp+hx1/L/KcdcNcOWx/wAAAAASUVORK5CYII=;" vertex="1" parent="1">
          <mxGeometry x="310" y="390" width="70" height="70" as="geometry" />
        </mxCell>
        <mxCell id="OhV8T-aaWGPs-SQFwPPZ-5" value="&lt;b&gt;&lt;font style=&quot;color: rgb(255, 255, 255);&quot;&gt;区块链&lt;/font&gt;&lt;/b&gt;" style="rounded=1;whiteSpace=wrap;html=1;fillColor=#0DB9FF;strokeColor=none;" vertex="1" parent="1">
          <mxGeometry x="387.5" y="210" width="100" height="40" as="geometry" />
        </mxCell>
      </root>
    </mxGraphModel>
  </diagram>
</mxfile>
